0
SECTION
2
HEADER
9
$INSUNITS
70
4
9
$ACADVER
1
AC1014
9
$HANDSEED
5
FFFF
0
ENDSEC
0
SECTION
2
TABLES
0
TABLE
2
VPORT
5
8
100
AcDbSymbolTable
0
ENDTAB
0
TABLE
2
LTYPE
5
5
100
AcDbSymbolTable
0
LTYPE
5
14
100
AcDbSymbolTableRecord
100
AcDbLinetypeTableRecord
2
BYBLOCK
70
0
0
LTYPE
5
15
100
AcDbSymbolTableRecord
100
AcDbLinetypeTableRecord
2
BYLAYER
70
0
0
LTYPE
5
16
100
AcDbSymbolTableRecord
100
AcDbLinetypeTableRecord
2
DASHED
70
0
3
Dashed __ __ __ __ __ __ __ __ __ __ __ __ __ _
72
65
73
2
40
0.75
49
0.5
74
0
49
-0.25
74
0
0
ENDTAB
0
TABLE
2
LAYER
5
2
100
AcDbSymbolTable
70
2
0
LAYER
5
50
100
AcDbSymbolTableRecord
100
AcDbLayerTableRecord
2
0
70
0
62
7
6
CONTINUOUS
0
ENDTAB
0
TABLE
2
STYLE
5
3
100
AcDbSymbolTable
70
1
0
STYLE
5
11
100
AcDbSymbolTableRecord
100
AcDbTextStyleTableRecord
2
STANDARD
70
0
0
ENDTAB
0
TABLE
2
VIEW
5
6
100
AcDbSymbolTable
70
0
0
ENDTAB
0
TABLE
2
UCS
5
7
100
AcDbSymbolTable
70
0
0
ENDTAB
0
TABLE
2
APPID
5
9
100
AcDbSymbolTable
70
2
0
APPID
5
12
100
AcDbSymbolTableRecord
100
AcDbRegAppTableRecord
2
ACAD
70
0
0
ENDTAB
0
TABLE
2
DIMSTYLE
5
A
100
AcDbSymbolTable
70
1
0
ENDTAB
0
TABLE
2
BLOCK_RECORD
5
1
100
AcDbSymbolTable
70
1
0
BLOCK_RECORD
5
1F
100
AcDbSymbolTableRecord
100
AcDbBlockTableRecord
2
*MODEL_SPACE
0
BLOCK_RECORD
5
1B
100
AcDbSymbolTableRecord
100
AcDbBlockTableRecord
2
*PAPER_SPACE
0
ENDTAB
0
ENDSEC
0
SECTION
2
BLOCKS
0
BLOCK
5
20
100
AcDbEntity
100
AcDbBlockBegin
2
*MODEL_SPACE
0
ENDBLK
5
21
100
AcDbEntity
100
AcDbBlockEnd
0
BLOCK
5
1C
100
AcDbEntity
100
AcDbBlockBegin
2
*PAPER_SPACE
0
ENDBLK
5
1D
100
AcDbEntity
100
AcDbBlockEnd
0
ENDSEC
0
SECTION
2
ENTITIES
0
POINT
5
100
100
AcDbEntity
8
0
100
AcDbPoint
10
70.000001043081284
20
0
30
0
0
POINT
5
101
100
AcDbEntity
8
0
100
AcDbPoint
10
59.500000000000014
20
-11.999999925494189
30
0
0
POINT
5
102
100
AcDbEntity
8
0
100
AcDbPoint
10
62.000000000000014
20
-15.999999999999998
30
0
0
POINT
5
103
100
AcDbEntity
8
0
100
AcDbPoint
10
82.115338977275769
20
26.000000476837151
30
0
0
POINT
5
104
100
AcDbEntity
8
0
100
AcDbPoint
10
70.00065204823963
20
-10.445869819476567
30
0
0
POINT
5
105
100
AcDbEntity
8
0
100
AcDbPoint
10
82.115338977275769
20
26.000000476837151
30
0
0
POINT
5
106
100
AcDbEntity
8
0
100
AcDbPoint
10
77.500000000000014
20
26.000000476837162
30
0
0
POINT
5
107
100
AcDbEntity
8
0
100
AcDbPoint
10
69.999999999999986
20
13.884661499561401
30
0
0
POINT
5
108
100
AcDbEntity
8
0
100
AcDbPoint
10
78
20
-15.999999999999998
30
0
0
POINT
5
109
100
AcDbEntity
8
0
100
AcDbPoint
10
78
20
-0.42302788492985854
30
0
0
POINT
5
110
100
AcDbEntity
8
0
100
AcDbPoint
10
78
20
4.1923110923459017
30
0
0
POINT
5
111
100
AcDbEntity
8
0
100
AcDbPoint
10
62.000000000000014
20
-15.999999999999998
30
0
0
POINT
5
112
100
AcDbEntity
8
0
100
AcDbPoint
10
62.000000000000014
20
-28
30
0
0
POINT
5
113
100
AcDbEntity
8
0
100
AcDbPoint
10
78
20
-0.42302788492985854
30
0
0
POINT
5
114
100
AcDbEntity
8
0
100
AcDbPoint
10
57.884661022724245
20
26.00000047683718
30
0
0
POINT
5
115
100
AcDbEntity
8
0
100
AcDbPoint
10
57.884661022724245
20
26.00000047683718
30
0
0
POINT
5
116
100
AcDbEntity
8
0
100
AcDbPoint
10
70.000000000000014
20
38.11533945411292
30
0
0
POINT
5
117
100
AcDbEntity
8
0
100
AcDbPoint
10
70
20
18.500000476837162
30
0
0
POINT
5
118
100
AcDbEntity
8
0
100
AcDbPoint
10
62.5
20
26.000000476837162
30
0
0
POINT
5
119
100
AcDbEntity
8
0
100
AcDbPoint
10
61.999999999999993
20
-5.0383668622056188
30
0
0
POINT
5
120
100
AcDbEntity
8
0
100
AcDbPoint
10
59.500000000000014
20
-23.999999925494187
30
0
0
POINT
5
121
100
AcDbEntity
8
0
100
AcDbPoint
10
62.000000000000014
20
-28
30
0
0
POINT
5
122
100
AcDbEntity
8
0
100
AcDbPoint
10
70.000000000000014
20
-15.999999999999996
30
0
0
POINT
5
123
100
AcDbEntity
8
0
100
AcDbPoint
10
61.999999999999993
20
-0.42302788492985854
30
0
0
POINT
5
124
100
AcDbEntity
8
0
100
AcDbPoint
10
70.000000000000014
20
-28
30
0
0
POINT
5
125
100
AcDbEntity
8
0
100
AcDbPoint
10
78
20
-15.999999999999998
30
0
0
POINT
5
126
100
AcDbEntity
8
0
100
AcDbPoint
10
70.000000000000014
20
26.000000476837162
30
0
0
POINT
5
127
100
AcDbEntity
8
0
100
AcDbPoint
10
78
20
-28
30
0
0
POINT
5
128
100
AcDbEntity
8
0
100
AcDbPoint
10
69.999999999999986
20
13.884661499561401
30
0
0
POINT
5
129
100
AcDbEntity
8
0
100
AcDbPoint
10
78
20
-28
30
0
0
POINT
5
130
100
AcDbEntity
8
0
100
AcDbPoint
10
61.999999999999993
20
-0.42302788492985854
30
0
0
POINT
5
131
100
AcDbEntity
8
0
100
AcDbPoint
10
57.884661022724245
20
26.00000047683718
30
0
0
POINT
5
132
100
AcDbEntity
8
0
100
AcDbPoint
10
82.115338977275769
20
26.000000476837151
30
0
0
POINT
5
133
100
AcDbEntity
8
0
100
AcDbPoint
10
70
20
-0.42302788492985854
30
0
0
POINT
5
134
100
AcDbEntity
8
0
100
AcDbPoint
10
70
20
33.500000476837158
30
0
0
POINT
5
135
100
AcDbEntity
8
0
100
AcDbPoint
10
69.999999999999986
20
13.884661499561401
30
0
0
POINT
5
136
100
AcDbEntity
8
0
100
AcDbPoint
10
61.999999999999993
20
-5.0383668622056188
30
0
0
POINT
5
137
100
AcDbEntity
8
0
100
AcDbPoint
10
61.999999999999993
20
-0.42302788492985854
30
0
0
POINT
5
138
100
AcDbEntity
8
0
100
AcDbPoint
10
70.000000000000014
20
38.11533945411292
30
0
0
POINT
5
139
100
AcDbEntity
8
0
100
AcDbPoint
10
70.000000000000014
20
38.11533945411292
30
0
0
SPLINE
5
140
100
AcDbEntity
8
0
100
AcDbSpline
70
0
71
3
72
9
73
5
74
0
42
0.000000001
43
0.0000000001
44
0.0000000001
40
0
40
0
40
0
40
0
40
0.047838338836255358
40
0.090180416300029598
40
0.090180416300029598
40
0.090180416300029598
40
0.090180416300029598
10
59.3772756984173
20
-37.593689778087729
30
0
10
59.214784163891458
20
-37.585563779505705
30
0
10
58.908470136581094
20
-37.570245397789151
30
0
10
58.650981835766842
20
-37.405143929503993
30
0
10
58.530084305832858
20
-37.327624447488581
30
0
0
SPLINE
5
141
100
AcDbEntity
8
0
100
AcDbSpline
70
0
71
3
72
9
73
5
74
0
42
0.000000001
43
0.0000000001
44
0.0000000001
40
0
40
0
40
0
40
0
40
0.048325151090156004
40
0.097629109308286499
40
0.097629109308286499
40
0.097629109308286499
40
0.097629109308286499
10
58.530084305832858
20
-37.327624447488581
30
0
10
58.414301331465893
20
-37.208393777769416
30
0
10
58.180390243647018
20
-36.967517467518562
30
0
10
58.148982621431664
20
-36.632979402910387
30
0
10
58.133121367504337
20
-36.464033369532871
30
0
0
SPLINE
5
142
100
AcDbEntity
8
0
100
AcDbSpline
70
0
71
3
72
9
73
5
74
0
42
0.000000001
43
0.0000000001
44
0.0000000001
40
0
40
0
40
0
40
0
40
0.046097375348305096
40
0.090457847312794271
40
0.090457847312794271
40
0.090457847312794271
40
0.090457847312794271
10
58.133121367504337
20
-36.464033369532871
30
0
10
58.146006054193798
20
-36.306683697562988
30
0
10
58.171289945357287
20
-35.997913133203873
30
0
10
58.370882920836522
20
-35.761453314398338
30
0
10
58.468763191659683
20
-35.645493566577024
30
0
0
SPLINE
5
143
100
AcDbEntity
8
0
100
AcDbSpline
70
0
71
3
72
9
73
5
74
0
42
0.000000001
43
0.0000000001
44
0.0000000001
40
0
40
0
40
0
40
0
40
0.046302066280513511
40
0.098146840023129456
40
0.098146840023129456
40
0.098146840023129456
40
0.098146840023129456
10
58.468763191659683
20
-35.645493566577024
30
0
10
58.595300411554518
20
-35.5512760459319
30
0
10
58.863522313418464
20
-35.351562454963606
30
0
10
59.198419968536165
20
-35.332351047950553
30
0
10
59.375325237747248
20
-35.322202875583173
30
0
0
SPLINE
5
144
100
AcDbEntity
8
0
100
AcDbSpline
70
0
71
3
72
9
73
5
74
0
42
0.000000001
43
0.0000000001
44
0.0000000001
40
0
40
0
40
0
40
0
40
0.05807518832806724
40
0.10822434944748666
40
0.10822434944748666
40
0.10822434944748666
40
0.10822434944748666
10
59.375325237747248
20
-35.322202875583173
30
0
10
59.574753290780905
20
-35.332816694106405
30
0
10
59.9463917119811
20
-35.352595770815398
30
0
10
60.230169383822357
20
-35.590557928230481
30
0
10
60.361666706374209
20
-35.700825189096051
30
0
0
SPLINE
5
145
100
AcDbEntity
8
0
100
AcDbSpline
70
0
71
3
72
9
73
5
74
0
42
0.000000001
43
0.0000000001
44
0.0000000001
40
0
40
0
40
0
40
0
40
0.039518070145149943
40
0.081142335490190037
40
0.081142335490190037
40
0.081142335490190037
40
0.081142335490190037
10
60.361666706374209
20
-35.700825189096051
30
0
10
60.439836378377933
20
-35.810188898202497
30
0
10
60.600341932611379
20
-36.034745075722604
30
0
10
60.619753557643691
20
-36.310436147981164
30
0
10
60.629711301973366
20
-36.451859712827115
30
0
0
SPLINE
5
146
100
AcDbEntity
8
0
100
AcDbSpline
70
0
71
3
72
9
73
5
74
0
42
0.000000001
43
0.0000000001
44
0.0000000001
40
0
40
0
40
0
40
0
40
0.046390054586158198
40
0.090748011418037483
40
0.090748011418037483
40
0.090748011418037483
40
0.090748011418037483
10
60.629711301973366
20
-36.451859712827115
30
0
10
60.617093816129113
20
-36.610215550714202
30
0
10
60.592411548352636
20
-36.91999051245736
30
0
10
60.39339576562579
20
-37.158102400654855
30
0
10
60.296116129839689
20
-37.274492354470667
30
0
0
SPLINE
5
147
100
AcDbEntity
8
0
100
AcDbSpline
70
0
71
3
72
9
73
5
74
0
42
0.000000001
43
0.0000000001
44
0.0000000001
40
0
40
0
40
0
40
0
40
0.046229522309886507
40
0.099170871704300556
40
0.099170871704300556
40
0.099170871704300556
40
0.099170871704300556
10
60.296116129839689
20
-37.274492354470667
30
0
10
60.169072902218261
20
-37.367483449176127
30
0
10
59.896541692769645
20
-37.56696653837745
30
0
10
59.558001758671224
20
-37.584388984501032
30
0
10
59.3772756984173
20
-37.593689778087729
30
0
0
LINE
5
148
100
AcDbEntity
8
0
100
AcDbLine
10
63.06086194553064
20
-35.371470625439663
30
0
11
63.060878664717009
21
-34.972425575645715
31
0
0
LINE
5
149
100
AcDbEntity
8
0
100
AcDbLine
10
63.060878664717009
20
-34.972425575645715
30
0
11
63.895821758230589
21
-34.544766237030807
31
0
0
LINE
5
150
100
AcDbEntity
8
0
100
AcDbLine
10
63.895821758230589
20
-34.544766237030807
30
0
11
63.895787119510942
21
-35.371505607128071
31
0
0
LINE
5
151
100
AcDbEntity
8
0
100
AcDbLine
10
63.895787119510942
20
-35.371505607128071
30
0
11
64.354176639753746
21
-35.371524812728595
31
0
0
LINE
5
152
100
AcDbEntity
8
0
100
AcDbLine
10
64.354176639753746
20
-35.371524812728595
30
0
11
64.354151175157767
21
-35.979300857994396
31
0
0
LINE
5
153
100
AcDbEntity
8
0
100
AcDbLine
10
64.354151175157767
20
-35.979300857994396
30
0
11
63.895761654914949
21
-35.979281652393865
31
0
0
LINE
5
154
100
AcDbEntity
8
0
100
AcDbLine
10
63.895761654914949
20
-35.979281652393865
30
0
11
63.895729331143826
21
-36.75076900694895
31
0
0
SPLINE
5
155
100
AcDbEntity
8
0
100
AcDbSpline
70
0
71
3
72
9
73
5
74
0
42
0.000000001
43
0.0000000001
44
0.0000000001
40
0
40
0
40
0
40
0
40
0.011581191281625092
40
0.01872100397783457
40
0.01872100397783457
40
0.01872100397783457
40
0.01872100397783457
10
63.895729331143826
20
-36.750769006948957
30
0
10
63.895293525405634
20
-36.78976525078911
30
0
10
63.894589045118622
20
-36.852802706807182
30
0
10
63.914667024091479
20
-36.912266362505434
30
0
10
63.922324359635795
20
-36.93494459944295
30
0
0
SPLINE
5
156
100
AcDbEntity
8
0
100
AcDbSpline
70
0
71
3
72
9
73
5
74
0
42
0.000000001
43
0.0000000001
44
0.0000000001
40
0
40
0
40
0
40
0
40
0.0076745825216433692
40
0.016544091446484246
40
0.016544091446484246
40
0.016544091446484246
40
0.016544091446484246
10
63.922324359635795
20
-36.93494459944295
30
0
10
63.939614430897905
20
-36.95521036347143
30
0
10
63.976886623785262
20
-36.998897254891851
30
0
10
64.034618470950562
20
-37.002562638073833
30
0
10
64.065569287158056
20
-37.00452769907163
30
0
0
SPLINE
5
157
100
AcDbEntity
8
0
100
AcDbSpline
70
0
71
3
72
9
73
5
74
0
42
0.000000001
43
0.0000000001
44
0.0000000001
40
0
40
0
40
0
40
0
40
0.011130228726258047
40
0.026394958730665465
40
0.026394958730665465
40
0.026394958730665465
40
0.026394958730665465
10
64.065569287158056
20
-37.00452769907163
30
0
10
64.102620258055452
20
-37.001205534909204
30
0
10
64.190485374920542
20
-36.993327135630963
30
0
10
64.274707764639984
20
-36.966719906370898
30
0
10
64.323415248993783
20
-36.951332416094267
30
0
0
LINE
5
158
100
AcDbEntity
8
0
100
AcDbLine
10
64.323415248993783
20
-36.951332416094267
30
0
11
64.384782748182232
21
-37.526369308128452
31
0
0
SPLINE
5
159
100
AcDbEntity
8
0
100
AcDbSpline
70
0
71
3
72
9
73
5
74
0
42
0.000000001
43
0.0000000001
44
0.0000000001
40
0
40
0
40
0
40
0
40
0.030303436844323465
40
0.058185434066535854
40
0.058185434066535854
40
0.058185434066535854
40
0.058185434066535854
10
64.384782748182232
20
-37.526369308128452
30
0
10
64.285513033237478
20
-37.546051386212262
30
0
10
64.094905892423881
20
-37.583842817676668
30
0
10
63.900741636606384
20
-37.590625294843306
30
0
10
63.807699669519465
20
-37.593875403956588
30
0
0
SPLINE
5
160
100
AcDbEntity
8
0
100
AcDbSpline
70
0
71
3
72
9
73
5
74
0
42
0.000000001
43
0.0000000001
44
0.0000000001
40
0
40
0
40
0
40
0
40
0.027085933626709337
40
0.046841283147432272
40
0.046841283147432272
40
0.046841283147432272
40
0.046841283147432272
10
63.807699669519465
20
-37.593875403956588
30
0
10
63.716502400080216
20
-37.593207285432925
30
0
10
63.558789648548384
20
-37.592051869142892
30
0
10
63.41145205270108
20
-37.537186768345634
30
0
10
63.349312301013548
20
-37.514047367161254
30
0
0
SPLINE
5
161
100
AcDbEntity
8
0
100
AcDbSpline
70
0
71
3
72
9
73
5
74
0
42
0.000000001
43
0.0000000001
44
0.0000000001
40
0
40
0
40
0
40
0
40
0.016292308818680257
40
0.033066543673962071
40
0.033066543673962071
40
0.033066543673962071
40
0.033066543673962071
10
63.349312301013548
20
-37.514047367161254
30
0
10
63.303187357124727
20
-37.483649219363194
30
0
10
63.209573094804192
20
-37.421953747410221
30
0
10
63.15701887779661
20
-37.322842662397953
30
0
10
63.130358795406003
20
-37.27256487609074
30
0
0
SPLINE
5
162
100
AcDbEntity
8
0
100
AcDbSpline
70
0
71
3
72
9
73
5
74
0
42
0.000000001
43
0.0000000001
44
0.0000000001
40
0
40
0
40
0
40
0
40
0.022012187418240164
40
0.053472313564178281
40
0.053472313564178281
40
0.053472313564178281
40
0.053472313564178281
10
63.130358795406003
20
-37.27256487609074
30
0
10
63.110222312708828
20
-37.20168904897114
30
0
10
63.061306487288817
20
-37.029516498381312
30
0
10
63.060990388990781
20
-36.850133623111041
30
0
10
63.060804414386958
20
-36.744594746854069
30
0
0
LINE
5
163
100
AcDbEntity
8
0
100
AcDbLine
10
63.060804414386958
20
-36.744594746854069
30
0
11
63.060836480934654
21
-35.979246670705457
31
0
0
LINE
5
164
100
AcDbEntity
8
0
100
AcDbLine
10
63.060836480934654
20
-35.979246670705457
30
0
11
62.753878521075286
21
-35.979233809783267
31
0
0
LINE
5
165
100
AcDbEntity
8
0
100
AcDbLine
10
62.753878521075286
20
-35.979233809783267
30
0
11
62.753903985671272
21
-35.371457764517459
31
0
0
LINE
5
166
100
AcDbEntity
8
0
100
AcDbLine
10
62.753903985671272
20
-35.371457764517459
30
0
11
63.06086194553064
21
-35.371470625439663
31
0
0
LINE
5
167
100
AcDbEntity
8
0
100
AcDbLine
10
68.545133481075425
20
-36.327361941507391
30
0
11
68.545082466125663
21
-37.544960855538775
31
0
0
LINE
5
168
100
AcDbEntity
8
0
100
AcDbLine
10
68.545082466125663
20
-37.544960855538775
30
0
11
67.613976853234419
21
-37.544921844083099
31
0
0
LINE
5
169
100
AcDbEntity
8
0
100
AcDbLine
10
67.613976853234419
20
-37.544921844083099
30
0
11
67.614102547215793
21
-34.544921727506974
31
0
0
LINE
5
170
100
AcDbEntity
8
0
100
AcDbLine
10
67.614102547215793
20
-34.544921727506974
30
0
11
69.159122887732863
21
-34.544986460757102
31
0
0
SPLINE
5
171
100
AcDbEntity
8
0
100
AcDbSpline
70
0
71
3
72
9
73
5
74
0
42
0.000000001
43
0.0000000001
44
0.0000000001
40
0
40
0
40
0
40
0
40
0.037953982111538206
40
0.066277820538381257
40
0.066277820538381257
40
0.066277820538381257
40
0.066277820538381257
10
69.159122887732863
20
-34.544986460757102
30
0
10
69.286140320503961
20
-34.545822436830434
30
0
10
69.507946785757298
20
-34.547282275010254
30
0
10
69.72377517636771
20
-34.597306130368707
30
0
10
69.816009477585197
20
-34.618683833877228
30
0
0
SPLINE
5
172
100
AcDbEntity
8
0
100
AcDbSpline
70
0
71
3
72
9
73
5
74
0
42
0.000000001
43
0.0000000001
44
0.0000000001
40
0
40
0
40
0
40
0
40
0.023063750584112367
40
0.046403083290103307
40
0.046403083290103307
40
0.046403083290103307
40
0.046403083290103307
10
69.816009477585197
20
-34.618683833877228
30
0
10
69.888194264229639
20
-34.64872646511094
30
0
10
70.033426352771542
20
-34.709170698337786
30
0
10
70.132479840044539
20
-34.831424761984493
30
0
10
70.182300716831975
20
-34.892914819622931
30
0
0
SPLINE
5
173
100
AcDbEntity
8
0
100
AcDbSpline
70
0
71
3
72
9
73
5
74
0
42
0.000000001
43
0.0000000001
44
0.0000000001
40
0
40
0
40
0
40
0
40
0.024394963904503304
40
0.051072301582968625
40
0.051072301582968625
40
0.051072301582968625
40
0.051072301582968625
10
70.182300716831975
20
-34.892914819622931
30
0
10
70.222862036060803
20
-34.964714661000322
30
0
10
70.307779559873012
20
-35.115031880849067
30
0
10
70.316749298364428
20
-35.287714162793037
30
0
10
70.32143459225577
20
-35.377913809249605
30
0
0
SPLINE
5
174
100
AcDbEntity
8
0
100
AcDbSpline
70
0
71
3
72
9
73
5
74
0
42
0.000000001
43
0.0000000001
44
0.0000000001
40
0
40
0
40
0
40
0
40
0.023429161324509642
40
0.044870849981941005
40
0.044870849981941005
40
0.044870849981941005
40
0.044870849981941005
10
70.32143459225577
20
-35.377913809249605
30
0
10
70.31783765182071
20
-35.456838923782989
30
0
10
70.310948895863149
20
-35.607994013160003
30
0
10
70.246028130296011
20
-35.744477381266989
30
0
10
70.215005521113142
20
-35.809696424076421
30
0
0
SPLINE
5
175
100
AcDbEntity
8
0
100
AcDbSpline
70
0
71
3
72
9
73
5
74
0
42
0.000000001
43
0.0000000001
44
0.0000000001
40
0
40
0
40
0
40
0
40
0.020640308502551247
40
0.041711210372723295
40
0.041711210372723295
40
0.041711210372723295
40
0.041711210372723295
10
70.215005521113142
20
-35.809696424076421
30
0
10
70.175892000582948
20
-35.867097437348093
30
0
10
70.096848982255437
20
-35.983096950625061
30
0
10
69.980921567388222
20
-36.062304650373974
30
0
10
69.922359488731132
20
-36.102317338902012
30
0
0
SPLINE
5
176
100
AcDbEntity
8
0
100
AcDbSpline
70
0
71
3
72
9
73
5
74
0
42
0.000000001
43
0.0000000001
44
0.0000000001
40
0
40
0
40
0
40
0
40
0.015518180221947042
40
0.034737928955672147
40
0.034737928955672147
40
0.034737928955672147
40
0.034737928955672147
10
69.922359488731132
20
-36.102317338902012
30
0
10
69.876089910807195
20
-36.125820484742164
30
0
10
69.772514021898701
20
-36.178433007522095
30
0
10
69.659505240387716
20
-36.205833652168891
30
0
10
69.596979912866971
20
-36.220993839350051
30
0
0
SPLINE
5
177
100
AcDbEntity
8
0
100
AcDbSpline
70
0
71
3
72
9
73
5
74
0
42
0.000000001
43
0.0000000001
44
0.0000000001
40
0
40
0
40
0
40
0
40
0.015353312702883568
40
0.026623278097570383
40
0.026623278097570383
40
0.026623278097570383
40
0.026623278097570383
10
69.596979912866971
20
-36.220993839350051
30
0
10
69.64563458062571
20
-36.237489150682919
30
0
10
69.730003783256635
20
-36.266092701552999
30
0
10
69.80619521940892
20
-36.312053221063259
30
0
10
69.838448003820389
20
-36.331508881726236
30
0
0
SPLINE
5
178
100
AcDbEntity
8
0
100
AcDbSpline
70
0
71
3
72
9
73
5
74
0
42
0.000000001
43
0.0000000001
44
0.0000000001
40
0
40
0
40
0
40
0
40
0.0085074859700385759
40
0.021608844070984429
40
0.021608844070984429
40
0.021608844070984429
40
0.021608844070984429
10
69.838448003820389
20
-36.331508881726236
30
0
10
69.859729386172532
20
-36.350322451783533
30
0
10
69.913783671361088
20
-36.398108543141007
30
0
10
69.958606059738514
20
-36.454747069589146
30
0
10
69.985781699450825
20
-36.489086787848457
30
0
0
SPLINE
5
179
100
AcDbEntity
8
0
100
AcDbSpline
70
0
71
3
72
9
73
5
74
0
42
0.000000001
43
0.0000000001
44
0.0000000001
40
0
40
0
40
0
40
0
40
0.013465919123946471
40
0.022793327384307026
40
0.022793327384307026
40
0.022793327384307026
40
0.022793327384307026
10
69.985781699450825
20
-36.489086787848457
30
0
10
70.014144208047199
20
-36.523985019015605
30
0
10
70.062152512413718
20
-36.583056130374906
30
0
10
70.100889976870889
20
-36.648523104868303
30
0
10
70.116741990921795
20
-36.675313278517585
30
0
0
LINE
5
180
100
AcDbEntity
8
0
100
AcDbLine
10
70.116741990921781
20
-36.675313278517578
30
0
11
70.564864530698074
21
-37.545045480351902
31
0
0
LINE
5
181
100
AcDbEntity
8
0
100
AcDbLine
10
70.564864530698074
20
-37.545045480351902
30
0
11
69.517115012269556
21
-37.545001581750782
31
0
0
LINE
5
182
100
AcDbEntity
8
0
100
AcDbLine
10
69.517115012269556
20
-37.545001581750782
30
0
11
69.021928232838903
21
-36.628200600231125
31
0
0
SPLINE
5
183
100
AcDbEntity
8
0
100
AcDbSpline
70
0
71
3
72
9
73
5
74
0
42
0.000000001
43
0.0000000001
44
0.0000000001
40
0
40
0
40
0
40
0
40
0.017170498347600316
40
0.028717330680875744
40
0.028717330680875744
40
0.028717330680875744
40
0.028717330680875744
10
69.021928232838889
20
-36.628200600231125
30
0
10
68.995062303754537
20
-36.577133804859542
30
0
10
68.95012955026391
20
-36.491725564527194
30
0
10
68.881663419589344
20
-36.424130860166755
30
0
10
68.854134157200974
20
-36.396951985969132
30
0
0
SPLINE
5
184
100
AcDbEntity
8
0
100
AcDbSpline
70
0
71
3
72
9
73
5
74
0
42
0.000000001
43
0.0000000001
44
0.0000000001
40
0
40
0
40
0
40
0
40
0.011897779039827179
40
0.024045451595403534
40
0.024045451595403534
40
0.024045451595403534
40
0.024045451595403534
10
68.854134157200974
20
-36.396951985969132
30
0
10
68.819386785360578
20
-36.376657755674671
30
0
10
68.749162229596095
20
-36.335643047754985
30
0
10
68.66799428357939
20
-36.330143647558941
30
0
10
68.626988539673619
20
-36.327365371069995
30
0
0
LINE
5
185
100
AcDbEntity
8
0
100
AcDbLine
10
68.626988539673619
20
-36.327365371069988
30
0
11
68.545133481075425
21
-36.327361941507391
31
0
0
SPLINE
5
186
100
AcDbEntity
8
0
100
AcDbSpline
70
0
71
3
72
9
73
5
74
0
42
0.000000001
43
0.0000000001
44
0.0000000001
40
0
40
0
40
0
40
0
40
0.017980633059412169
40
0.031681168966994966
40
0.031681168966994966
40
0.031681168966994966
40
0.031681168966994966
10
74.796860709642502
20
-35.818073900483427
30
0
10
74.7361144086872
20
-35.818979837822091
30
0
10
74.629081813209268
20
-35.820576063817299
30
0
10
74.531917545648412
20
-35.864535433188031
30
0
10
74.489898814015177
20
-35.883545682436292
30
0
0
SPLINE
5
187
100
AcDbEntity
8
0
100
AcDbSpline
70
0
71
3
72
9
73
5
74
0
42
0.000000001
43
0.0000000001
44
0.0000000001
40
0
40
0
40
0
40
0
40
0.010310574536888136
40
0.023468131013219824
40
0.023468131013219824
40
0.023468131013219824
40
0.023468131013219824
10
74.489898814015177
20
-35.883545682436292
30
0
10
74.463828872119194
20
-35.906685022984561
30
0
10
74.404490489982166
20
-35.959352997364029
30
0
10
74.376603378222683
20
-36.034031364491391
30
0
10
74.360968292167868
20
-36.075900264596179
30
0
0
LINE
5
188
100
AcDbEntity
8
0
100
AcDbLine
10
74.360968292167868
20
-36.075900264596186
30
0
11
73.564927935341231
21
-35.991965327881495
31
0
0
SPLINE
5
189
100
AcDbEntity
8
0
100
AcDbSpline
70
0
71
3
72
9
73
5
74
0
42
0.000000001
43
0.0000000001
44
0.0000000001
40
0
40
0
40
0
40
0
40
0.019410004873835325
40
0.03536009798958957
40
0.03536009798958957
40
0.03536009798958957
40
0.03536009798958957
10
73.564927935341231
20
-35.991965327881495
30
0
10
73.579926814250854
20
-35.928575706522061
30
0
10
73.607250961329896
20
-35.813095919816085
30
0
10
73.666939876348479
20
-35.710725740480655
30
0
10
73.693864116004306
20
-35.664549004964897
30
0
0
SPLINE
5
190
100
AcDbEntity
8
0
100
AcDbSpline
70
0
71
3
72
9
73
5
74
0
42
0.000000001
43
0.0000000001
44
0.0000000001
40
0
40
0
40
0
40
0
40
0.015349230602525483
40
0.032433828158552044
40
0.032433828158552044
40
0.032433828158552044
40
0.032433828158552044
10
73.693864116004306
20
-35.664549004964897
30
0
10
73.72688008292684
20
-35.624971515657641
30
0
10
73.796644765299789
20
-35.541341950086618
30
0
10
73.890173003344358
20
-35.485331592012592
30
0
10
73.939439229313876
20
-35.455828000207589
30
0
0
SPLINE
5
191
100
AcDbEntity
8
0
100
AcDbSpline
70
0
71
3
72
9
73
5
74
0
42
0.000000001
43
0.0000000001
44
0.0000000001
40
0
40
0
40
0
40
0
40
0.014725923185281002
40
0.033116964967206994
40
0.033116964967206994
40
0.033116964967206994
40
0.033116964967206994
10
73.939439229313876
20
-35.455828000207589
30
0
10
73.984260188293575
20
-35.435390215354886
30
0
10
74.085057544741176
20
-35.389427908173332
30
0
10
74.194056414030172
20
-35.368973759958799
30
0
10
74.25458740656714
20
-35.357614835769958
30
0
0
SPLINE
5
192
100
AcDbEntity
8
0
100
AcDbSpline
70
0
71
3
72
9
73
5
74
0
42
0.000000001
43
0.0000000001
44
0.0000000001
40
0
40
0
40
0
40
0
40
0.021035508553625386
40
0.043562355729526742
40
0.043562355729526742
40
0.043562355729526742
40
0.043562355729526742
10
74.25458740656714
20
-35.357614835769958
30
0
10
74.324046621416329
20
-35.347474407514554
30
0
10
74.467889448807
20
-35.326474632691649
30
0
10
74.613251071048467
20
-35.324081825481755
30
0
10
74.68842007866148
20
-35.32284446351094
30
0
0
SPLINE
5
193
100
AcDbEntity
8
0
100
AcDbSpline
70
0
71
3
72
9
73
5
74
0
42
0.000000001
43
0.0000000001
44
0.0000000001
40
0
40
0
40
0
40
0
40
0.033782403408886712
40
0.060377089151674022
40
0.060377089151674022
40
0.060377089151674022
40
0.060377089151674022
10
74.68842007866148
20
-35.32284446351094
30
0
10
74.801187374003121
20
-35.323614242252049
30
0
10
75.002729015721968
20
-35.324990017655487
30
0
10
75.202197052838201
20
-35.353351264517997
30
0
10
75.290058025226443
20
-35.365843725784018
30
0
0
SPLINE
5
194
100
AcDbEntity
8
0
100
AcDbSpline
70
0
71
3
72
9
73
5
74
0
42
0.000000001
43
0.0000000001
44
0.0000000001
40
0
40
0
40
0
40
0
40
0.021781707894651604
40
0.042060198441653152
40
0.042060198441653152
40
0.042060198441653152
40
0.042060198441653152
10
75.290058025226443
20
-35.365843725784018
30
0
10
75.361640778440375
20
-35.382485246783624
30
0
10
75.499866156346457
20
-35.414619810289828
30
0
10
75.613732453463342
20
-35.499080828954888
30
0
10
75.668630830438673
20
-35.539802034085795
30
0
0
SPLINE
5
195
100
AcDbEntity
8
0
100
AcDbSpline
70
0
71
3
72
9
73
5
74
0
42
0.000000001
43
0.0000000001
44
0.0000000001
40
0
40
0
40
0
40
0
40
0.014660653719668081
40
0.03136407601189882
40
0.03136407601189882
40
0.03136407601189882
40
0.03136407601189882
10
75.668630830438673
20
-35.539802034085795
30
0
10
75.702794464674113
20
-35.57538344029696
30
0
10
75.775881984609569
20
-35.651504051993825
30
0
10
75.815385443719634
20
-35.749537317293871
30
0
10
75.836423619984373
20
-35.80174644433373
30
0
0
SPLINE
5
196
100
AcDbEntity
8
0
100
AcDbSpline
70
0
71
3
72
9
73
5
74
0
42
0.000000001
43
0.0000000001
44
0.0000000001
40
0
40
0
40
0
40
0
40
0.017055525552551427
40
0.032836324714974788
40
0.032836324714974788
40
0.032836324714974788
40
0.032836324714974788
10
75.836423619984373
20
-35.80174644433373
30
0
10
75.854318941558688
20
-35.856009910596669
30
0
10
75.888772092139305
20
-35.960481203074863
30
0
10
75.894871588085209
20
-36.070268715804893
30
0
10
75.897802942959729
20
-36.123031462670546
30
0
0
LINE
5
197
100
AcDbEntity
8
0
100
AcDbLine
10
75.897802942959729
20
-36.123031462670546
30
0
11
75.897762731169635
21
-37.082786048047936
31
0
0
SPLINE
5
198
100
AcDbEntity
8
0
100
AcDbSpline
70
0
71
3
72
9
73
5
74
0
42
0.000000001
43
0.0000000001
44
0.0000000001
40
0
40
0
40
0
40
0
40
0.013718494381451708
40
0.024246052603172374
40
0.024246052603172374
40
0.024246052603172374
40
0.024246052603172374
10
75.897762731169621
20
-37.082786048047936
30
0
10
75.898032365694107
20
-37.128593145106066
30
0
10
75.898508917470281
20
-37.209552560475402
30
0
10
75.910821835476568
20
-37.289532920799729
30
0
10
75.916168064956139
20
-37.324260136552716
30
0
0
SPLINE
5
199
100
AcDbEntity
8
0
100
AcDbSpline
70
0
71
3
72
9
73
5
74
0
42
0.000000001
43
0.0000000001
44
0.0000000001
40
0
40
0
40
0
40
0
40
0.010322077114401959
40
0.023744699072860292
40
0.023744699072860292
40
0.023744699072860292
40
0.023744699072860292
10
75.916168064956139
20
-37.324260136552716
30
0
10
75.926016354418692
20
-37.357278377232959
30
0
10
75.948671161884221
20
-37.433232875555177
30
0
10
75.982810246779252
20
-37.504810967555237
30
0
10
76.002108702790309
20
-37.545273289965664
30
0
0
LINE
5
200
100
AcDbEntity
8
0
100
AcDbLine
10
76.002108702790309
20
-37.545273289965657
30
0
11
75.220386634689831
21
-37.545240537380579
31
0
0
SPLINE
5
201
100
AcDbEntity
8
0
100
AcDbSpline
70
0
71
3
72
9
73
5
74
0
42
0.000000001
43
0.0000000001
44
0.0000000001
40
0
40
0
40
0
40
0
40
0.0083299826365782897
40
0.014107078510154521
40
0.014107078510154521
40
0.014107078510154521
40
0.014107078510154521
10
75.220386634689831
20
-37.545240537380579
30
0
10
75.206795890887605
20
-37.520983092522464
30
0
10
75.18377955361612
20
-37.47990237315021
30
0
10
75.166202178131869
20
-37.436242010244399
30
0
10
75.159003934831162
20
-37.41836232649554
30
0
0
SPLINE
5
202
100
AcDbEntity
8
0
100
AcDbSpline
70
0
71
3
72
9
73
5
74
0
42
0.000000001
43
0.0000000001
44
0.0000000001
40
0
40
0
40
0
40
0
40
0.0059062164960640767
40
0.014216250916224402
40
0.014216250916224402
40
0.014216250916224402
40
0.014216250916224402
10
75.159003934831162
20
-37.41836232649554
30
0
10
75.1539433303452
20
-37.399323343726749
30
0
10
75.141762465792041
20
-37.353496551496704
30
0
10
75.134564281146439
20
-37.306612472915631
30
0
10
75.130356620313762
20
-37.279206632299697
30
0
0
SPLINE
5
203
100
AcDbEntity
8
0
100
AcDbSpline
70
0
71
3
72
9
73
5
74
0
42
0.000000001
43
0.0000000001
44
0.0000000001
40
0
40
0
40
0
40
0
40
0.021183725599895606
40
0.039733339553454095
40
0.039733339553454095
40
0.039733339553454095
40
0.039733339553454095
10
75.130356620313762
20
-37.279206632299697
30
0
10
75.077911141323796
20
-37.327089171539647
30
0
10
74.979541569129083
20
-37.416900247562651
30
0
10
74.860532351758195
20
-37.476480435659553
30
0
10
74.804972585980764
20
-37.504295602995072
30
0
0
SPLINE
5
204
100
AcDbEntity
8
0
100
AcDbSpline
70
0
71
3
72
9
73
5
74
0
42
0.000000001
43
0.0000000001
44
0.0000000001
40
0
40
0
40
0
40
0
40
0.024827499143083992
40
0.052392062805366901
40
0.052392062805366901
40
0.052392062805366901
40
0.052392062805366901
10
74.804972585980764
20
-37.504295602995072
30
0
10
74.726007119657126
20
-37.530534592123139
30
0
10
74.559370776333111
20
-37.585905242160209
30
0
10
74.383735020571379
20
-37.591415555508064
30
0
10
74.291329363839495
20
-37.59431464699145
30
0
0
SPLINE
5
205
100
AcDbEntity
8
0
100
AcDbSpline
70
0
71
3
72
9
73
5
74
0
42
0.000000001
43
0.0000000001
44
0.0000000001
40
0
40
0
40
0
40
0
40
0.034520769742221062
40
0.062860838077343162
40
0.062860838077343162
40
0.062860838077343162
40
0.062860838077343162
10
74.291329363839495
20
-37.59431464699145
30
0
10
74.173694080685166
20
-37.590239975700605
30
0
10
73.959485285754909
20
-37.582820174399984
30
0
10
73.780585119635361
20
-37.466603198016195
30
0
10
73.6999300872167
20
-37.414208143270578
30
0
0
SPLINE
5
206
100
AcDbEntity
8
0
100
AcDbSpline
70
0
71
3
72
9
73
5
74
0
42
0.000000001
43
0.0000000001
44
0.0000000001
40
0
40
0
40
0
40
0
40
0.025109119149021645
40
0.049921752545551958
40
0.049921752545551958
40
0.049921752545551958
40
0.049921752545551958
10
73.6999300872167
20
-37.414208143270578
30
0
10
73.64144110844741
20
-37.350946713547096
30
0
10
73.525153782419238
20
-37.225170838193186
30
0
10
73.507952477922117
20
-37.054809292317316
30
0
10
73.499402905027239
20
-36.970134408781789
30
0
0
SPLINE
5
207
100
AcDbEntity
8
0
100
AcDbSpline
70
0
71
3
72
9
73
5
74
0
42
0.000000001
43
0.0000000001
44
0.0000000001
40
0
40
0
40
0
40
0
40
0.022851895559324195
40
0.044031953692549336
40
0.044031953692549336
40
0.044031953692549336
40
0.044031953692549336
10
73.499402905027239
20
-36.970134408781789
30
0
10
73.504485927842993
20
-36.892364448375865
30
0
10
73.51428010113861
20
-36.74251415318372
30
0
10
73.602351104021025
20
-36.621243176466187
30
0
10
73.644714633332626
20
-36.5629099406828
30
0
0
SPLINE
5
208
100
AcDbEntity
8
0
100
AcDbSpline
70
0
71
3
72
9
73
5
74
0
42
0.000000001
43
0.0000000001
44
0.0000000001
40
0
40
0
40
0
40
0
40
0.02491636487574098
40
0.059296044181933655
40
0.059296044181933655
40
0.059296044181933655
40
0.059296044181933655
10
73.644714633332626
20
-36.5629099406828
30
0
10
73.71136424737665
20
-36.511768253084533
30
0
10
73.869977210333829
20
-36.390061102684029
30
0
10
74.066773548622578
20
-36.34922721393999
30
0
10
74.180875510943054
20
-36.325551840325907
30
0
0
SPLINE
5
209
100
AcDbEntity
8
0
100
AcDbSpline
70
0
71
3
72
9
73
5
74
0
42
0.000000001
43
0.0000000001
44
0.0000000001
40
0
40
0
40
0
40
0
40
0.039441381559725222
40
0.062176647695424289
40
0.062176647695424289
40
0.062176647695424289
40
0.062176647695424289
10
74.180875510943054
20
-36.325551840325907
30
0
10
74.30983501137672
20
-36.299899692264212
30
0
10
74.513130867362406
20
-36.259460830601938
30
0
10
74.714885017915762
20
-36.211972873130392
30
0
10
74.788657639580435
20
-36.194608615143295
30
0
0
SPLINE
5
210
100
AcDbEntity
8
0
100
AcDbSpline
70
0
71
3
72
9
73
5
74
0
42
0.000000001
43
0.0000000001
44
0.0000000001
40
0
40
0
40
0
40
0
40
0.015000214277594601
40
0.031137706486006379
40
0.031137706486006379
40
0.031137706486006379
40
0.031137706486006379
10
74.788657639580435
20
-36.194608615143295
30
0
10
74.836606632013883
20
-36.180362471746228
30
0
10
74.936139987008801
20
-36.15079007874926
30
0
10
75.033094558873486
20
-36.113614671403184
30
0
10
75.083342435952659
20
-36.094348067850945
30
0
0
SPLINE
5
211
100
AcDbEntity
8
0
100
AcDbSpline
70
0
71
3
72
9
73
5
74
0
42
0.000000001
43
0.0000000001
44
0.0000000001
40
0
40
0
40
0
40
0
40
0.013141776698539168
40
0.022831640913398687
40
0.022831640913398687
40
0.022831640913398687
40
0.022831640913398687
10
75.083342435952659
20
-36.094348067850945
30
0
10
75.08272669316186
20
-36.049329985948752
30
0
10
75.081656942958588
20
-35.971118591540034
30
0
10
75.03830977927008
20
-35.906780324772647
30
0
10
75.019913023126534
20
-35.879474838007155
30
0
0
SPLINE
5
212
100
AcDbEntity
8
0
100
AcDbSpline
70
0
71
3
72
9
73
5
74
0
42
0.000000001
43
0.0000000001
44
0.0000000001
40
0
40
0
40
0
40
0
40
0.0098859785663676994
40
0.023529776625221231
40
0.023529776625221231
40
0.023529776625221231
40
0.023529776625221231
10
75.019913023126534
20
-35.879474838007155
30
0
10
74.991505511523854
20
-35.86168041864476
30
0
10
74.923892336156129
20
-35.819327634854886
30
0
10
74.843485062397633
20
-35.818534057967042
30
0
10
74.796860709642502
20
-35.818073900483427
30
0
0
LWPOLYLINE
5
213
100
AcDbEntity
8
0
100
AcDbPolyline
90
11
70
1
43
0.0
10
79.526758182818782
20
-43.455380048724365
10
78.80029200456238
20
-43.455349611250114
10
78.800315497153619
20
-42.894640373689882
10
77.281899093762249
20
-42.8945767550913
10
77.281927816480163
20
-42.209037510087555
10
78.800419842014136
20
-40.40419023206173
10
79.526886020270553
20
-40.404220669535967
10
79.526808769079466
20
-42.248012868006143
10
79.903345614909853
20
-42.248028644143957
10
79.903318521240422
20
-42.894686587301962
10
79.526781675410035
20
-42.89467081116414
0
SPLINE
5
214
100
AcDbEntity
8
0
100
AcDbSpline
70
0
71
3
72
9
73
5
74
0
42
0.000000001
43
0.0000000001
44
0.0000000001
40
0
40
0
40
0
40
0
40
0.030027782339500826
40
0.060473545138485504
40
0.060473545138485504
40
0.060473545138485504
40
0.060473545138485504
10
84.136596028478692
20
-34.969215554926514
30
0
10
84.21093195054199
20
-34.901025753648334
30
0
10
84.360638535180243
20
-34.763696963298216
30
0
10
84.456633737267666
20
-34.584624797465423
30
0
10
84.504963087662134
20
-34.494469859924372
30
0
0
LINE
5
215
100
AcDbEntity
8
0
100
AcDbLine
10
84.504963087662134
20
-34.494469859924365
30
0
11
85.194598363851256
21
-34.494498754257769
31
0
0
LINE
5
216
100
AcDbEntity
8
0
100
AcDbLine
10
85.194598363851256
20
-34.494498754257769
30
0
11
85.194470526387022
21
-37.545658431469384
31
0
0
LINE
5
217
100
AcDbEntity
8
0
100
AcDbLine
10
85.194470526387022
20
-37.545658431469384
30
0
11
84.351355674221765
21
-37.545623106649913
31
0
0
LINE
5
218
100
AcDbEntity
8
0
100
AcDbLine
10
84.351355674221765
20
-37.545623106649913
30
0
11
84.35143944163174
21
-35.546305104750274
31
0
0
SPLINE
5
219
100
AcDbEntity
8
0
100
AcDbSpline
70
0
71
3
72
9
73
5
74
0
42
0.000000001
43
0.0000000001
44
0.0000000001
40
0
40
0
40
0
40
0
40
0.02458095600783362
40
0.047056998214189086
40
0.047056998214189086
40
0.047056998214189086
40
0.047056998214189086
10
84.35143944163174
20
-35.546305104750274
30
0
10
84.285307792912846
20
-35.594876845228868
30
0
10
84.158707473760302
20
-35.687861036089195
30
0
10
84.020463454173878
20
-35.762394210110919
30
0
10
83.954433351597885
20
-35.797993819704814
30
0
0
SPLINE
5
220
100
AcDbEntity
8
0
100
AcDbSpline
70
0
71
3
72
9
73
5
74
0
42
0.000000001
43
0.0000000001
44
0.0000000001
40
0
40
0
40
0
40
0
40
0.023458744373159111
40
0.051350276739423314
40
0.051350276739423314
40
0.051350276739423314
40
0.051350276739423314
10
83.954433351597885
20
-35.797993819704814
30
0
10
83.883352633692056
20
-35.830769903639201
30
0
10
83.727759713745385
20
-35.902515473380376
30
0
10
83.564336680287056
20
-35.954119094886344
30
0
10
83.475571456095025
20
-35.982148234568569
30
0
0
LINE
5
221
100
AcDbEntity
8
0
100
AcDbLine
10
83.475571456095054
20
-35.982148234568569
30
0
11
83.475600093055164
21
-35.298655813064606
31
0
0
SPLINE
5
222
100
AcDbEntity
8
0
100
AcDbSpline
70
0
71
3
72
9
73
5
74
0
42
0.000000001
43
0.0000000001
44
0.0000000001
40
0
40
0
40
0
40
0
40
0.040707972776643044
40
0.074162187390694495
40
0.074162187390694495
40
0.074162187390694495
40
0.074162187390694495
10
83.475600093055164
20
-35.298655813064606
30
0
10
83.604718753029857
20
-35.254423381940271
30
0
10
83.839948404705694
20
-35.173840301476218
30
0
10
84.044378549678257
20
-35.032826306251557
30
0
10
84.136596028478692
20
-34.969215554926514
30
0
0
LINE
5
223
100
AcDbEntity
8
0
100
AcDbLine
10
63.757317068882855
20
-43.454719340804019
30
0
11
62.380099896515311
21
-43.454661638169718
31
0
0
LINE
5
224
100
AcDbEntity
8
0
100
AcDbLine
10
62.380099896515311
20
-43.454661638169718
30
0
11
62.380225590496686
21
-40.454661521593593
31
0
0
LINE
5
225
100
AcDbEntity
8
0
100
AcDbLine
10
62.380225590496686
20
-40.454661521593593
30
0
11
63.75744276286423
21
-40.454719224227901
31
0
0
SPLINE
5
226
100
AcDbEntity
8
0
100
AcDbSpline
70
0
71
3
72
9
73
5
74
0
42
0.000000001
43
0.0000000001
44
0.0000000001
40
0
40
0
40
0
40
0
40
0.036887410446347649
40
0.066957283781786114
40
0.066957283781786114
40
0.066957283781786114
40
0.066957283781786114
10
63.75744276286423
20
-40.454719224227901
30
0
10
63.881272145852222
20
-40.457134584192993
30
0
10
64.106044745417336
20
-40.461518896907307
30
0
10
64.318787210647884
20
-40.533103853152156
30
0
10
64.414327809388425
20
-40.565251969763658
30
0
0
SPLINE
5
227
100
AcDbEntity
8
0
100
AcDbSpline
70
0
71
3
72
9
73
5
74
0
42
0.000000001
43
0.0000000001
44
0.0000000001
40
0
40
0
40
0
40
0
40
0.026621200057369426
40
0.052668308581333922
40
0.052668308581333922
40
0.052668308581333922
40
0.052668308581333922
10
64.414327809388425
20
-40.565251969763658
30
0
10
64.49425666968115
20
-40.605714917223267
30
0
10
64.652390708318762
20
-40.685768220542435
30
0
10
64.77104821914142
20
-40.817373624301538
30
0
10
64.829730283267509
20
-40.882459068022584
30
0
0
SPLINE
5
228
100
AcDbEntity
8
0
100
AcDbSpline
70
0
71
3
72
9
73
5
74
0
42
0.000000001
43
0.0000000001
44
0.0000000001
40
0
40
0
40
0
40
0
40
0.026442367905686069
40
0.053914295355284317
40
0.053914295355284317
40
0.053914295355284317
40
0.053914295355284317
10
64.829730283267509
20
-40.882459068022584
30
0
10
64.880769056878805
20
-40.955011721351894
30
0
10
64.984833848839415
20
-41.102941936768218
30
0
10
65.039324693468345
20
-41.275461702900067
30
0
10
65.067090400512228
20
-41.363368824148033
30
0
0
SPLINE
5
229
100
AcDbEntity
8
0
100
AcDbSpline
70
0
71
3
72
9
73
5
74
0
42
0.000000001
43
0.0000000001
44
0.0000000001
40
0
40
0
40
0
40
0
40
0.028775578691219012
40
0.058709479191522682
40
0.058709479191522682
40
0.058709479191522682
40
0.058709479191522682
10
65.067090400512228
20
-41.363368824148033
30
0
10
65.088571109081329
20
-41.457110683336438
30
0
10
65.132397202946876
20
-41.648367852843016
30
0
10
65.137920211373796
20
-41.844529354208305
30
0
10
65.140736199302694
20
-41.944545211012347
30
0
0
SPLINE
5
230
100
AcDbEntity
8
0
100
AcDbSpline
70
0
71
3
72
9
73
5
74
0
42
0.000000001
43
0.0000000001
44
0.0000000001
40
0
40
0
40
0
40
0
40
0.042807531870476735
40
0.075838895195178752
40
0.075838895195178752
40
0.075838895195178752
40
0.075838895195178752
10
65.140736199302694
20
-41.944545211012347
30
0
10
65.139026632028333
20
-42.088143721197028
30
0
10
65.135997919844215
20
-42.342546436986161
30
0
10
65.06229940535269
20
-42.585606756924278
30
0
10
65.030200277294512
20
-42.691470822019525
30
0
0
SPLINE
5
231
100
AcDbEntity
8
0
100
AcDbSpline
70
0
71
3
72
9
73
5
74
0
42
0.000000001
43
0.0000000001
44
0.0000000001
40
0
40
0
40
0
40
0
40
0.027556982752913652
40
0.05407584181185851
40
0.05407584181185851
40
0.05407584181185851
40
0.05407584181185851
10
65.030200277294512
20
-42.691470822019525
30
0
10
64.991106494092065
20
-42.775366437095329
30
0
10
64.914391664488335
20
-42.939997160648261
30
0
10
64.788872238993278
20
-43.071187541284331
30
0
10
64.727317358988927
20
-43.135523464635867
30
0
0
SPLINE
5
232
100
AcDbEntity
8
0
100
AcDbSpline
70
0
71
3
72
9
73
5
74
0
42
0.000000001
43
0.0000000001
44
0.0000000001
40
0
40
0
40
0
40
0
40
0.025028287065231955
40
0.048381015538908473
40
0.048381015538908473
40
0.048381015538908473
40
0.048381015538908473
10
64.727317358988927
20
-43.135523464635867
30
0
10
64.662696369138516
20
-43.1895411084937
30
0
10
64.537780544657835
20
-43.293960098896434
30
0
10
64.384047885594583
20
-43.347192849716585
30
0
10
64.309843634099423
20
-43.372887431815826
30
0
0
SPLINE
5
233
100
AcDbEntity
8
0
100
AcDbSpline
70
0
71
3
72
9
73
5
74
0
42
0.000000001
43
0.0000000001
44
0.0000000001
40
0
40
0
40
0
40
0
40
0.029700118206641
40
0.055973549637848369
40
0.055973549637848369
40
0.055973549637848369
40
0.055973549637848369
10
64.309843634099423
20
-43.372887431815826
30
0
10
64.213467773584242
20
-43.396730709238199
30
0
10
64.03183553310275
20
-43.441666317340633
30
0
10
63.845010768426995
20
-43.450549610651294
30
0
10
63.757317068882855
20
-43.454719340804019
30
0
0
LWPOLYLINE
5
234
100
AcDbEntity
8
0
100
AcDbPolyline
90
7
70
1
43
0.0
10
70.496060845011584
20
-43.455001680638006
10
69.491286275428394
20
-43.454959582600949
10
68.357714937476374
20
-40.454911966395457
10
69.32770185221338
20
-40.454952606899617
10
70.00291771674155
20
-42.613916565067846
10
70.668083950188503
20
-40.455008766218263
10
71.609420104300028
20
-40.45504820631308
0
LWPOLYLINE
5
235
100
AcDbEntity
8
0
100
AcDbPolyline
90
7
70
1
43
0.0
10
76.283237925808521
20
-43.455244151738029
10
75.544493190739161
20
-43.455213199816896
10
74.64008376231574
20
-41.281914854607074
10
75.507750959735318
20
-41.281951208120518
10
75.929248299022845
20
-42.659185446751458
10
76.365185231748839
20
-41.281987132894933
10
77.206249684135628
20
-41.282022371806775
0
SPLINE
5
236
100
AcDbEntity
8
0
100
AcDbSpline
70
0
71
3
72
9
73
5
74
0
42
0.000000001
43
0.0000000001
44
0.0000000001
40
-0.11643800031367907
40
-0.11643800031367907
40
-0.11643800031367907
40
-0.11643800031367907
40
-0.061580007457508953
40
0
40
0
40
0
40
0
10
72.157808164296867
20
-41.50077387943611
30
0
10
72.10969124375535
20
-41.324106163121108
30
0
10
72.007561404193126
20
-40.949122782638376
30
0
10
71.85288963526213
20
-40.592500719459039
30
0
10
71.771089117745689
20
-40.40389571721807
30
0
0
LINE
5
237
100
AcDbEntity
8
0
100
AcDbLine
10
71.771089117745689
20
-40.403895717218063
30
0
11
72.290870229960376
21
-40.403917495003043
31
0
0
SPLINE
5
238
100
AcDbEntity
8
0
100
AcDbSpline
70
0
71
3
72
9
73
5
74
0
42
0.000000001
43
0.0000000001
44
0.0000000001
40
-0.11226711664244793
40
-0.11226711664244793
40
-0.11226711664244793
40
-0.11226711664244793
40
-0.05260027203115792
40
0
40
0
40
0
40
0
10
72.290870229960376
20
-40.403917495003043
30
0
10
72.406800222078687
20
-40.566414236726146
30
0
10
72.624930174019241
20
-40.872162609644029
30
0
10
72.770879758468851
20
-41.218021530068995
30
0
10
72.839261205097912
20
-41.380066070294383
30
0
0
SPLINE
5
239
100
AcDbEntity
8
0
100
AcDbSpline
70
0
71
3
72
9
73
5
74
0
42
0.000000001
43
0.0000000001
44
0.0000000001
40
-0.10027300177550266
40
-0.10027300177550266
40
-0.10027300177550266
40
-0.10027300177550266
40
-0.050672716905286706
40
0
40
0
40
0
40
0
10
72.839261205097912
20
-41.380066070294383
30
0
10
72.8887923668768
20
-41.538628887044737
30
0
10
72.988925627925468
20
-41.859182884811901
30
0
10
73.002307077273201
20
-42.194786981666432
30
0
10
73.009069360066889
20
-42.364383693553435
30
0
0
SPLINE
5
240
100
AcDbEntity
8
0
100
AcDbSpline
70
0
71
3
72
9
73
5
74
0
42
0.000000001
43
0.0000000001
44
0.0000000001
40
-0.097281078643145363
40
-0.097281078643145363
40
-0.097281078643145363
40
-0.097281078643145363
40
-0.048256742049213971
40
0
40
0
40
0
40
0
10
73.009069360066889
20
-42.364383693553435
30
0
10
73.002541305400783
20
-42.52842231263142
30
0
10
72.989587408551117
20
-42.853931129511842
30
0
10
72.89452232240329
20
-43.165488792863385
30
0
10
72.847364833977906
20
-43.320038454560333
30
0
0
SPLINE
5
241
100
AcDbEntity
8
0
100
AcDbSpline
70
0
71
3
72
9
73
5
74
0
42
0.000000001
43
0.0000000001
44
0.0000000001
40
-0.11620524664071666
40
-0.11620524664071666
40
-0.11620524664071666
40
-0.11620524664071666
40
-0.063318293861364547
40
0
40
0
40
0
40
0
10
72.847364833977906
20
-43.320038454560333
30
0
10
72.779153635216375
20
-43.48308657546891
30
0
10
72.629277365944219
20
-43.841342177441966
30
0
10
72.410120400876124
20
-44.162224728605608
30
0
10
72.290705438840462
20
-44.337068259830858
30
0
0
LINE
5
242
100
AcDbEntity
8
0
100
AcDbLine
10
72.290705438840462
20
-44.337068259830858
30
0
11
71.770924326625774
21
-44.337046482045892
31
0
0
SPLINE
5
243
100
AcDbEntity
8
0
100
AcDbSpline
70
0
71
3
72
9
73
5
74
0
42
0.000000001
43
0.0000000001
44
0.0000000001
40
-0.19975574033437049
40
-0.19975574033437049
40
-0.19975574033437049
40
-0.19975574033437049
40
-0.095628279141471845
40
0
40
0
40
0
40
0
10
71.770924326625774
20
-44.337046482045892
30
0
10
71.912913755685636
20
-44.017031052966971
30
0
10
72.185303029337121
20
-43.403120772031009
30
0
10
72.234494683510007
20
-42.733858537180765
30
0
10
72.258044010447009
20
-42.413465262344346
30
0
0
SPLINE
5
244
100
AcDbEntity
8
0
100
AcDbSpline
70
0
71
3
72
9
73
5
74
0
42
0.000000001
43
0.0000000001
44
0.0000000001
40
-0.091970657255869948
40
-0.091970657255869948
40
-0.091970657255869948
40
-0.091970657255869948
40
-0.044837143685181199
40
0
40
0
40
0
40
0
10
72.258044010447009
20
-42.413465262344346
30
0
10
72.254306435548884
20
-42.256062355668988
30
0
10
72.247013382392367
20
-41.948925295767701
30
0
10
72.187044122726888
20
-41.647650222075626
30
0
10
72.157808164296867
20
-41.50077387943611
30
0
0
LWPOLYLINE
5
245
100
AcDbEntity
8
0
100
AcDbPolyline
90
12
70
1
43
0.0
10
68.154997824452849
20
-43.454903594797891
10
65.625666380978927
20
-43.454797620888868
10
65.625792074960302
20
-40.454797504312751
10
68.110102938181996
20
-40.454901591949842
10
68.110076101735999
20
-41.095420256701367
10
66.554824027905767
20
-41.095355094762162
10
66.554804050634914
20
-41.57216245022439
10
67.997505865927465
20
-41.572222896533752
10
67.997480229840875
20
-42.184091992752684
10
66.554778414548323
20
-42.184031546443322
10
66.55475363586487
20
-42.775436579989481
10
68.15502628994733
20
-42.77550362820061
0
SPLINE
5
246
100
AcDbEntity
8
0
100
AcDbSpline
70
0
71
3
72
9
73
5
74
0
42
0.000000001
43
0.0000000001
44
0.0000000001
40
0
40
0
40
0
40
0
40
0.050668452140155557
40
0.10022955577461312
40
0.10022955577461312
40
0.10022955577461312
40
0.10022955577461312
10
60.659136581104121
20
-42.363866256166538
30
0
10
60.665821096361334
20
-42.194298804700516
30
0
10
60.679044038182113
20
-41.858869763227887
30
0
10
60.778033220889391
20
-41.538150659573787
30
0
10
60.826980989887566
20
-41.379562779871968
30
0
0
SPLINE
5
247
100
AcDbEntity
8
0
100
AcDbSpline
70
0
71
3
72
9
73
5
74
0
42
0.000000001
43
0.0000000001
44
0.0000000001
40
0
40
0
40
0
40
0
40
0.052664969516018019
40
0.11235982752465076
40
0.11235982752465076
40
0.11235982752465076
40
0.11235982752465076
10
60.826980989887566
20
-41.379562779871968
30
0
10
60.895953328130744
20
-41.21754892076779
30
0
10
61.043104652819515
20
-40.871895074713393
30
0
10
61.261480194785875
20
-40.565985030348358
30
0
10
61.37749939183724
20
-40.403460246677099
30
0
0
LINE
5
248
100
AcDbEntity
8
0
100
AcDbLine
10
61.377499391837233
20
-40.403460246677099
30
0
11
61.897281100098368
21
-40.403482024487047
31
0
0
SPLINE
5
249
100
AcDbEntity
8
0
100
AcDbSpline
70
0
71
3
72
9
73
5
74
0
42
0.000000001
43
0.0000000001
44
0.0000000001
40
0
40
0
40
0
40
0
40
0.061580007457508953
40
0.11643805117491809
40
0.11643805117491809
40
0.11643805117491809
40
0.11643805117491809
10
61.897281100098368
20
-40.40348202448704
30
0
10
61.815464943278045
20
-40.592080220511633
30
0
10
61.660763535335661
20
-40.948689569988595
30
0
10
61.558600796782237
20
-41.323664129978127
30
0
10
61.51046835278045
20
-41.500327777276041
30
0
0
SPLINE
5
250
100
AcDbEntity
8
0
100
AcDbSpline
70
0
71
3
72
9
73
5
74
0
42
0.000000001
43
0.0000000001
44
0.0000000001
40
0
40
0
40
0
40
0
40
0.044837103695096303
40
0.091970623605922161
40
0.091970623605922161
40
0.091970623605922161
40
0.091970623605922161
10
61.51046835278045
20
-41.500327777276041
30
0
10
61.481221167601547
20
-41.64720170717424
30
0
10
61.421228847894326
20
-41.948471990287274
30
0
10
61.413908687837377
20
-42.255608205248635
30
0
10
61.410157219202439
20
-42.413010757668488
30
0
0
SPLINE
5
251
100
AcDbEntity
8
0
100
AcDbSpline
70
0
71
3
72
9
73
5
74
0
42
0.000000001
43
0.0000000001
44
0.0000000001
40
0
40
0
40
0
40
0
40
0.095628271552225141
40
0.19975577456375515
40
0.19975577456375515
40
0.19975577456375515
40
0.19975577456375515
10
61.410157219202439
20
-42.413010757668488
30
0
10
61.433679381944103
20
-42.733406038011651
30
0
10
61.482814305765352
20
-43.402672629916587
30
0
10
61.755153139989773
20
-44.01660550750335
30
0
10
61.89711630897844
20
-44.336632789314862
30
0
0
LINE
5
252
100
AcDbEntity
8
0
100
AcDbLine
10
61.89711630897844
20
-44.336632789314869
30
0
11
61.377334600717319
21
-44.336611011504914
31
0
0
SPLINE
5
253
100
AcDbEntity
8
0
100
AcDbSpline
70
0
71
3
72
9
73
5
74
0
42
0.000000001
43
0.0000000001
44
0.0000000001
40
0
40
0
40
0
40
0
40
0.06334561195284992
40
0.1162962691317237
40
0.1162962691317237
40
0.1162962691317237
40
0.1162962691317237
10
61.377334600717319
20
-44.336611011504914
30
0
10
61.257867799782694
20
-44.161715768756139
30
0
10
61.038538586511528
20
-43.840625426528348
30
0
10
60.887488542573465
20
-43.482563188802231
30
0
10
60.818714203094359
20
-43.319534478250361
30
0
0
SPLINE
5
254
100
AcDbEntity
8
0
100
AcDbSpline
70
0
71
3
72
9
73
5
74
0
42
0.000000001
43
0.0000000001
44
0.0000000001
40
0
40
0
40
0
40
0
40
0.048218407697489585
40
0.097238549778231403
40
0.097238549778231403
40
0.097238549778231403
40
0.097238549778231403
10
60.818714203094359
20
-43.319534478250361
30
0
10
60.772166573238955
20
-43.164952305907462
30
0
10
60.678297359407821
20
-42.853217701262366
30
0
10
60.665558517899036
20
-42.527877550545838
30
0
10
60.659136581104121
20
-42.363866256166538
30
0
0
LINE
5
255
100
AcDbEntity
8
0
100
AcDbLine
10
80.02530301230837
20
-37.545441853729344
30
0
11
79.192421085549199
21
-37.5454069576489
31
0
0
LINE
5
256
100
AcDbEntity
8
0
100
AcDbLine
10
79.192421085549199
20
-37.5454069576489
30
0
11
79.192546779530574
21
-34.545406841072776
31
0
0
LINE
5
257
100
AcDbEntity
8
0
100
AcDbLine
10
79.192546779530574
20
-34.545406841072776
30
0
11
80.025428706289773
21
-34.545441737153219
31
0
0
LINE
5
258
100
AcDbEntity
8
0
100
AcDbLine
10
80.025428706289773
20
-34.545441737153219
30
0
11
80.025382407007314
21
-35.650489498577251
31
0
0
SPLINE
5
259
100
AcDbEntity
8
0
100
AcDbSpline
70
0
71
3
72
9
73
5
74
0
42
0.000000001
43
0.0000000001
44
0.0000000001
40
0
40
0
40
0
40
0
40
0.022683216322199478
40
0.042301353708552342
40
0.042301353708552342
40
0.042301353708552342
40
0.042301353708552342
10
80.025382407007314
20
-35.650489498577251
30
0
10
80.079572469264889
20
-35.597111378389172
30
0
10
80.180630139327477
20
-35.497567878459499
30
0
10
80.305250714813411
20
-35.430091758831175
30
0
10
80.363046112754859
20
-35.398798297295954
30
0
0
SPLINE
5
260
100
AcDbEntity
8
0
100
AcDbSpline
70
0
71
3
72
9
73
5
74
0
42
0.000000001
43
0.0000000001
44
0.0000000001
40
0
40
0
40
0
40
0
40
0.019175239873481152
40
0.040643330903990749
40
0.040643330903990749
40
0.040643330903990749
40
0.040643330903990749
10
80.363046112754859
20
-35.398798297295954
30
0
10
80.423479653477671
20
-35.376735945642189
30
0
10
80.551572986833776
20
-35.329973169025017
30
0
10
80.687988960083459
20
-35.325474880034989
30
0
10
80.760044829191671
20
-35.323098852397209
30
0
0
SPLINE
5
261
100
AcDbEntity
8
0
100
AcDbSpline
70
0
71
3
72
9
73
5
74
0
42
0.000000001
43
0.0000000001
44
0.0000000001
40
0
40
0
40
0
40
0
40
0.030774691498329228
40
0.058571546958971377
40
0.058571546958971377
40
0.058571546958971377
40
0.058571546958971377
10
80.760044829191671
20
-35.323098852397209
30
0
10
80.865367656173447
20
-35.329822957293999
30
0
10
81.065822010256909
20
-35.342620525898091
30
0
10
81.220662239684259
20
-35.469562120215265
30
0
10
81.294146238320977
20
-35.529805998555197
30
0
0
SPLINE
5
262
100
AcDbEntity
8
0
100
AcDbSpline
70
0
71
3
72
9
73
5
74
0
42
0.000000001
43
0.0000000001
44
0.0000000001
40
0
40
0
40
0
40
0
40
0.030053344952253518
40
0.067619955360972428
40
0.067619955360972428
40
0.067619955360972428
40
0.067619955360972428
10
81.294146238320977
20
-35.529805998555197
30
0
10
81.351259891977392
20
-35.614452938566387
30
0
10
81.47976547819033
20
-35.804908354231216
30
0
10
81.486712401260405
20
-36.035877520063138
30
0
10
81.490571799734099
20
-36.164193615850493
30
0
0
LINE
5
263
100
AcDbEntity
8
0
100
AcDbLine
10
81.490571799734113
20
-36.164193615850493
30
0
11
81.490513925634161
21
-37.545503243124728
31
0
0
LINE
5
264
100
AcDbEntity
8
0
100
AcDbLine
10
81.490513925634161
20
-37.545503243124728
30
0
11
80.653540736061174
21
-37.545468175628578
31
0
0
LINE
5
265
100
AcDbEntity
8
0
100
AcDbLine
10
80.653540736061174
20
-37.545468175628578
30
0
11
80.653590807874991
21
-36.350379551723307
31
0
0
SPLINE
5
266
100
AcDbEntity
8
0
100
AcDbSpline
70
0
71
3
72
9
73
5
74
0
42
0.000000001
43
0.0000000001
44
0.0000000001
40
0
40
0
40
0
40
0
40
0.017547824004689974
40
0.030291575368210047
40
0.030291575368210047
40
0.030291575368210047
40
0.030291575368210047
10
80.653590807874963
20
-36.350379551723307
30
0
10
80.653005002872845
20
-36.290551980546546
30
0
10
80.651993768866362
20
-36.187275848935379
30
0
10
80.599830964186708
20
-36.098981807465705
30
0
10
80.577885924842235
20
-36.061836254694263
30
0
0
SPLINE
5
267
100
AcDbEntity
8
0
100
AcDbSpline
70
0
71
3
72
9
73
5
74
0
42
0.000000001
43
0.0000000001
44
0.0000000001
40
0
40
0
40
0
40
0
40
0.011156820285397454
40
0.023520996784650999
40
0.023520996784650999
40
0.023520996784650999
40
0.023520996784650999
10
80.577885924842235
20
-36.061836254694263
30
0
10
80.549020064592582
20
-36.036784746225109
30
0
10
80.48816457093487
20
-35.983970733353999
30
0
10
80.407480433151704
20
-35.978666947527259
30
0
10
80.365067565645518
20
-35.975878930306891
30
0
0
SPLINE
5
268
100
AcDbEntity
8
0
100
AcDbSpline
70
0
71
3
72
9
73
5
74
0
42
0.000000001
43
0.0000000001
44
0.0000000001
40
0
40
0
40
0
40
0
40
0.014006859832512621
40
0.027845368177887513
40
0.027845368177887513
40
0.027845368177887513
40
0.027845368177887513
10
80.365067565645518
20
-35.975878930306891
30
0
10
80.317073733535139
20
-35.98053524444385
30
0
10
80.221662917594841
20
-35.989791907467968
30
0
10
80.153414361160586
20
-36.057043516690428
30
0
10
80.119496396357889
20
-36.09046602162983
30
0
0
SPLINE
5
269
100
AcDbEntity
8
0
100
AcDbSpline
70
0
71
3
72
9
73
5
74
0
42
0.000000001
43
0.0000000001
44
0.0000000001
40
0
40
0
40
0
40
0
40
0.017500296410401642
40
0.042729643816926746
40
0.042729643816926746
40
0.042729643816926746
40
0.042729643816926746
10
80.119496396357889
20
-36.09046602162983
30
0
10
80.092255717720761
20
-36.142878382580037
30
0
10
80.025743444545554
20
-36.270851158725449
30
0
10
80.025494013690391
20
-36.416052696361746
30
0
10
80.025346739406388
20
-36.501785684277188
30
0
0
LINE
5
270
100
AcDbEntity
8
0
100
AcDbLine
10
80.025346739406388
20
-36.501785684277195
30
0
11
80.02530301230837
21
-37.545441853729344
31
0
0
SPLINE
5
271
100
AcDbEntity
8
0
100
AcDbSpline
70
0
71
3
72
9
73
5
74
0
42
0.000000001
43
0.0000000001
44
0.0000000001
40
0
40
0
40
0
40
0
40
0.015186424325085665
40
0.029074425929353775
40
0.029074425929353775
40
0.029074425929353775
40
0.029074425929353775
10
77.575797491029746
20
-37.037835774003909
30
0
10
77.627242103163013
20
-37.03501042164261
30
0
10
77.725732869186373
20
-37.029601281466192
30
0
10
77.809840161052136
20
-36.978402051417795
30
0
10
77.850015750664838
20
-36.953945678976353
30
0
0
SPLINE
5
272
100
AcDbEntity
8
0
100
AcDbSpline
70
0
71
3
72
9
73
5
74
0
42
0.000000001
43
0.0000000001
44
0.0000000001
40
0
40
0
40
0
40
0
40
0.014481821805950678
40
0.031146935753985736
40
0.031146935753985736
40
0.031146935753985736
40
0.031146935753985736
10
77.850015750664838
20
-36.953945678976353
30
0
10
77.885686703945595
20
-36.920427928968152
30
0
10
77.962406394672811
20
-36.84833926359773
30
0
10
77.998512049855776
20
-36.749168974240703
30
0
10
78.017830318032964
20
-36.696108082939936
30
0
0
LINE
5
273
100
AcDbEntity
8
0
100
AcDbLine
10
78.017830318032964
20
-36.696108082939936
30
0
11
78.809776770636574
21
-36.786182126545512
31
0
0
SPLINE
5
274
100
AcDbEntity
8
0
100
AcDbSpline
70
0
71
3
72
9
73
5
74
0
42
0.000000001
43
0.0000000001
44
0.0000000001
40
0
40
0
40
0
40
0
40
0.024687625136835784
40
0.048328808684470911
40
0.048328808684470911
40
0.048328808684470911
40
0.048328808684470911
10
78.809776770636574
20
-36.786182126545512
30
0
10
78.78500862323483
20
-36.865301028797802
30
0
10
78.736522183141318
20
-37.020185197245887
30
0
10
78.641415073256539
20
-37.151619675834347
30
0
10
78.59489117368868
20
-37.215913969804717
30
0
0
SPLINE
5
275
100
AcDbEntity
8
0
100
AcDbSpline
70
0
71
3
72
9
73
5
74
0
42
0.000000001
43
0.0000000001
44
0.0000000001
40
0
40
0
40
0
40
0
40
0.023380661233444539
40
0.047779511174416922
40
0.047779511174416922
40
0.047779511174416922
40
0.047779511174416922
10
78.59489117368868
20
-37.215913969804717
30
0
10
78.54079918087163
20
-37.272951946633896
30
0
10
78.430259579384597
20
-37.38951180882367
30
0
10
78.285914070200107
20
-37.460170588629296
30
0
10
78.212203303143696
20
-37.496252853246794
30
0
0
SPLINE
5
276
100
AcDbEntity
8
0
100
AcDbSpline
70
0
71
3
72
9
73
5
74
0
42
0.000000001
43
0.0000000001
44
0.0000000001
40
0
40
0
40
0
40
0
40
0.027350391042090402
40
0.060086021401954931
40
0.060086021401954931
40
0.060086021401954931
40
0.060086021401954931
10
78.212203303143696
20
-37.496252853246794
30
0
10
78.12528715888709
20
-37.525433730485119
30
0
10
77.934341248975187
20
-37.58954114348596
30
0
10
77.732699613358491
20
-37.594046486118884
30
0
10
77.622842680003743
20
-37.596501054213668
30
0
0
SPLINE
5
277
100
AcDbEntity
8
0
100
AcDbSpline
70
0
71
3
72
9
73
5
74
0
42
0.000000001
43
0.0000000001
44
0.0000000001
40
0
40
0
40
0
40
0
40
0.03175883202367287
40
0.058179816976915627
40
0.058179816976915627
40
0.058179816976915627
40
0.058179816976915627
10
77.622842680003743
20
-37.596501054213668
30
0
10
77.516675745571689
20
-37.594970375430677
30
0
10
77.32218582196073
20
-37.592166285803614
30
0
10
77.132090148914102
20
-37.551504188081559
30
0
10
77.045762704480325
20
-37.53303846013835
30
0
0
SPLINE
5
278
100
AcDbEntity
8
0
100
AcDbSpline
70
0
71
3
72
9
73
5
74
0
42
0.000000001
43
0.0000000001
44
0.0000000001
40
0
40
0
40
0
40
0
40
0.022961893700670515
40
0.04494171846728405
40
0.04494171846728405
40
0.04494171846728405
40
0.04494171846728405
10
77.045762704480325
20
-37.53303846013835
30
0
10
76.972640972493082
20
-37.508509151011403
30
0
10
76.829524889139947
20
-37.460499639280741
30
0
10
76.709515168152947
20
-37.369027539996942
30
0
10
76.650821537211698
20
-37.32429091705815
30
0
0
SPLINE
5
279
100
AcDbEntity
8
0
100
AcDbSpline
70
0
71
3
72
9
73
5
74
0
42
0.000000001
43
0.0000000001
44
0.0000000001
40
0
40
0
40
0
40
0
40
0.021607692255702974
40
0.042990936557110823
40
0.042990936557110823
40
0.042990936557110823
40
0.042990936557110823
10
76.650821537211698
20
-37.32429091705815
30
0
10
76.598638075453337
20
-37.27398216931288
30
0
10
76.494813202938701
20
-37.173887251401709
30
0
10
76.425443976544457
20
-37.047462433159552
30
0
10
76.390940445480027
20
-36.984580044667233
30
0
0
SPLINE
5
280
100
AcDbEntity
8
0
100
AcDbSpline
70
0
71
3
72
9
73
5
74
0
42
0.000000001
43
0.0000000001
44
0.0000000001
40
0
40
0
40
0
40
0
40
0.023689055942166196
40
0.052740870467054793
40
0.052740870467054793
40
0.052740870467054793
40
0.052740870467054793
10
76.390940445480027
20
-36.984580044667233
30
0
10
76.363561340704592
20
-36.909951364482595
30
0
10
76.302605014627687
20
-36.743799468672393
30
0
10
76.29888097876767
20
-36.566532819042607
30
0
10
76.296829628493569
20
-36.468887145376485
30
0
0
SPLINE
5
281
100
AcDbEntity
8
0
100
AcDbSpline
70
0
71
3
72
9
73
5
74
0
42
0.000000001
43
0.0000000001
44
0.0000000001
40
0
40
0
40
0
40
0
40
0.030880113620367491
40
0.057429243741114702
40
0.057429243741114702
40
0.057429243741114702
40
0.057429243741114702
10
76.296829628493569
20
-36.468887145376485
30
0
10
76.299991659995754
20
-36.365026489385905
30
0
10
76.305872243211482
20
-36.171871794383065
30
0
10
76.378073283217375
20
-35.992945354686753
30
0
10
76.411451309482359
20
-35.910228936707199
30
0
0
SPLINE
5
282
100
AcDbEntity
8
0
100
AcDbSpline
70
0
71
3
72
9
73
5
74
0
42
0.000000001
43
0.0000000001
44
0.0000000001
40
0
40
0
40
0
40
0
40
0.018406520678006029
40
0.037333979043820291
40
0.037333979043820291
40
0.037333979043820291
40
0.037333979043820291
10
76.411451309482359
20
-35.910228936707199
30
0
10
76.44230904075711
20
-35.856818541956059
30
0
10
76.50489783268057
20
-35.74848614208301
30
0
10
76.594987005053042
20
-35.661636439601729
30
0
10
76.640660118473122
20
-35.617605662012544
30
0
0
SPLINE
5
283
100
AcDbEntity
8
0
100
AcDbSpline
70
0
71
3
72
9
73
5
74
0
42
0.000000001
43
0.0000000001
44
0.0000000001
40
0
40
0
40
0
40
0
40
0.018634395572739666
40
0.035776062983288587
40
0.035776062983288587
40
0.035776062983288587
40
0.035776062983288587
10
76.640660118473122
20
-35.617605662012544
30
0
10
76.688274088061391
20
-35.577255029936453
30
0
10
76.779687859343909
20
-35.499786096268352
30
0
10
76.88769148982017
20
-35.448016261982822
30
0
10
76.939440121681102
20
-35.423211372701509
30
0
0
SPLINE
5
284
100
AcDbEntity
8
0
100
AcDbSpline
70
0
71
3
72
9
73
5
74
0
42
0.000000001
43
0.0000000001
44
0.0000000001
40
0
40
0
40
0
40
0
40
0.028779541253134006
40
0.063505209330410178
40
0.063505209330410178
40
0.063505209330410178
40
0.063505209330410178
10
76.939440121681102
20
-35.423211372701509
30
0
10
77.031341377373423
20
-35.394036069763679
30
0
10
77.234131561870626
20
-35.329657568937392
30
0
10
77.447123417478295
20
-35.325330847914259
30
0
10
77.563590783840525
20
-35.322964927390636
30
0
0
SPLINE
5
285
100
AcDbEntity
8
0
100
AcDbSpline
70
0
71
3
72
9
73
5
74
0
42
0.000000001
43
0.0000000001
44
0.0000000001
40
0
40
0
40
0
40
0
40
0.047103035425371115
40
0.08413894493128446
40
0.08413894493128446
40
0.08413894493128446
40
0.08413894493128446
10
77.563590783840525
20
-35.322964927390636
30
0
10
77.722967972772878
20
-35.326332551857817
30
0
10
78.007659360531278
20
-35.332348053131447
30
0
10
78.261999107224113
20
-35.458002580981713
30
0
10
78.373953254616438
20
-35.513312636584047
30
0
0
SPLINE
5
286
100
AcDbEntity
8
0
100
AcDbSpline
70
0
71
3
72
9
73
5
74
0
42
0.000000001
43
0.0000000001
44
0.0000000001
40
0
40
0
40
0
40
0
40
0.033427116282825985
40
0.069169508921781031
40
0.069169508921781031
40
0.069169508921781031
40
0.069169508921781031
10
78.373953254616438
20
-35.513312636584047
30
0
10
78.460981200078081
20
-35.586014201213786
30
0
10
78.641064944039741
20
-35.736452889395458
30
0
10
78.723985933592928
20
-35.956328290799163
30
0
10
78.766834214762184
20
-36.069945881138082
30
0
0
LINE
5
287
100
AcDbEntity
8
0
100
AcDbLine
10
78.766834214762184
20
-36.069945881138082
30
0
11
77.983062142556236
21
-36.174278391569466
31
0
0
SPLINE
5
288
100
AcDbEntity
8
0
100
AcDbSpline
70
0
71
3
72
9
73
5
74
0
42
0.000000001
43
0.0000000001
44
0.0000000001
40
0
40
0
40
0
40
0
40
0.013246998683838346
40
0.025260713076248005
40
0.025260713076248005
40
0.025260713076248005
40
0.025260713076248005
10
77.98306214255625
20
-36.174278391569459
30
0
10
77.969097258156268
20
-36.131430843501391
30
0
10
77.942467608196324
20
-36.049724817585592
30
0
10
77.878455146674852
20
-35.992674118014918
30
0
10
77.848011531407437
20
-35.965541439358518
30
0
0
SPLINE
5
289
100
AcDbEntity
8
0
100
AcDbSpline
70
0
71
3
72
9
73
5
74
0
42
0.000000001
43
0.0000000001
44
0.0000000001
40
0
40
0
40
0
40
0
40
0.012517499412200418
40
0.027309048223457692
40
0.027309048223457692
40
0.027309048223457692
40
0.027309048223457692
10
77.848011531407437
20
-35.965541439358518
30
0
10
77.811179756281859
20
-35.94468796483249
30
0
10
77.730824991329413
20
-35.899192572925138
30
0
10
77.638260296790463
20
-35.895764169848022
30
0
10
77.58812397617362
20
-35.893907225180996
30
0
0
SPLINE
5
290
100
AcDbEntity
8
0
100
AcDbSpline
70
0
71
3
72
9
73
5
74
0
42
0.000000001
43
0.0000000001
44
0.0000000001
40
0
40
0
40
0
40
0
40
0.019093252942651934
40
0.03768477011174462
40
0.03768477011174462
40
0.03768477011174462
40
0.03768477011174462
10
77.58812397617362
20
-35.893907225180996
30
0
10
77.52276378012219
20
-35.89979070308533
30
0
10
77.393760934454434
20
-35.911403051853135
30
0
10
77.299173993224372
20
-35.999712329691441
30
0
10
77.252510188811186
20
-36.043279092875949
30
0
0
SPLINE
5
291
100
AcDbEntity
8
0
100
AcDbSpline
70
0
71
3
72
9
73
5
74
0
42
0.000000001
43
0.0000000001
44
0.0000000001
40
0
40
0
40
0
40
0
40
0.020866966046388217
40
0.047302826974432624
40
0.047302826974432624
40
0.047302826974432624
40
0.047302826974432624
10
77.252510188811186
20
-36.043279092875949
30
0
10
77.215633026727545
20
-36.103603498025002
30
0
10
77.132037068720365
20
-36.240351451357441
30
0
10
77.127917089951197
20
-36.401417882749747
30
0
10
77.125614580931455
20
-36.491432159967573
30
0
0
SPLINE
5
292
100
AcDbEntity
8
0
100
AcDbSpline
70
0
71
3
72
9
73
5
74
0
42
0.000000001
43
0.0000000001
44
0.0000000001
40
0
40
0
40
0
40
0
40
0.023796916479183063
40
0.043399907794152578
40
0.043399907794152578
40
0.043399907794152578
40
0.043399907794152578
10
77.125614580931455
20
-36.491432159967573
30
0
10
77.128526384618937
20
-36.57258754864479
30
0
10
77.133836821022015
20
-36.720595648293795
30
0
10
77.215560961970311
20
-36.843261829078592
30
0
10
77.25247434973214
20
-36.8986680315058
30
0
0
SPLINE
5
293
100
AcDbEntity
8
0
100
AcDbSpline
70
0
71
3
72
9
73
5
74
0
42
0.000000001
43
0.0000000001
44
0.0000000001
40
0
40
0
40
0
40
0
40
0.017806334578358219
40
0.036046865222434679
40
0.036046865222434679
40
0.036046865222434679
40
0.036046865222434679
10
77.25247434973214
20
-36.8986680315058
30
0
10
77.298050320250198
20
-36.939254919058016
30
0
10
77.390313602141063
20
-37.021418379424013
30
0
10
77.513475021785197
20
-37.032319539818225
30
0
10
77.575797491029746
20
-37.037835774003909
30
0
0
SPLINE
5
294
100
AcDbEntity
8
0
100
AcDbSpline
70
0
71
3
72
9
73
5
74
0
42
0.000000001
43
0.0000000001
44
0.0000000001
40
0
40
0
40
0
40
0
40
0.032616343017730753
40
0.071708522444457967
40
0.071708522444457967
40
0.071708522444457967
40
0.071708522444457967
10
73.077893819456591
20
-35.873254490907726
30
0
10
73.118985178336573
20
-35.974848460370012
30
0
10
73.209326410917981
20
-36.198207450537836
30
0
10
73.215629466342804
20
-36.439523326177252
30
0
10
73.21906560147994
20
-36.57107761271719
30
0
0
LINE
5
295
100
AcDbEntity
8
0
100
AcDbLine
10
73.219065601479954
20
-36.57107761271719
30
0
11
73.219061657470462
21
-36.665211228128342
31
0
0
LINE
5
296
100
AcDbEntity
8
0
100
AcDbLine
10
73.219061657470462
20
-36.665211228128342
30
0
11
71.549211309509857
21
-36.665141264751533
31
0
0
SPLINE
5
297
100
AcDbEntity
8
0
100
AcDbSpline
70
0
71
3
72
9
73
5
74
0
42
0.000000001
43
0.0000000001
44
0.0000000001
40
0
40
0
40
0
40
0
40
0.017912399248013969
40
0.032139219223486712
40
0.032139219223486712
40
0.032139219223486712
40
0.032139219223486712
10
71.549211309509857
20
-36.665141264751533
30
0
10
71.557365896944987
20
-36.72523665717727
30
0
10
71.571997218501949
20
-36.83306246904926
30
0
10
71.631373122361836
20
-36.923766646937807
30
0
10
71.657656595187404
20
-36.963917964892062
30
0
0
SPLINE
5
298
100
AcDbEntity
8
0
100
AcDbSpline
70
0
71
3
72
9
73
5
74
0
42
0.000000001
43
0.0000000001
44
0.0000000001
40
0
40
0
40
0
40
0
40
0.017486889594278632
40
0.035436290805438399
40
0.035436290805438399
40
0.035436290805438399
40
0.035436290805438399
10
71.657656595187404
20
-36.963917964892062
30
0
10
71.701383587630062
20
-37.005101348982812
30
0
10
71.78999410992401
20
-37.088557378548501
30
0
10
71.911333294176671
20
-37.099558990074783
30
0
10
71.972794740938809
20
-37.105131591912219
30
0
0
SPLINE
5
299
100
AcDbEntity
8
0
100
AcDbSpline
70
0
71
3
72
9
73
5
74
0
42
0.000000001
43
0.0000000001
44
0.0000000001
40
0
40
0
40
0
40
0
40
0.01206933750986814
40
0.024324584676208676
40
0.024324584676208676
40
0.024324584676208676
40
0.024324584676208676
10
71.972794740938809
20
-37.105131591912219
30
0
10
72.013349540248598
20
-37.102497972192168
30
0
10
72.095083823429519
20
-37.097190165874466
30
0
10
72.168896643319599
20
-37.061653969645903
30
0
10
72.206085124185307
20
-37.043750072254454
30
0
0
SPLINE
5
300
100
AcDbEntity
8
0
100
AcDbSpline
70
0
71
3
72
9
73
5
74
0
42
0.000000001
43
0.0000000001
44
0.0000000001
40
0
40
0
40
0
40
0
40
0.0088306575931447369
40
0.020059935769503802
40
0.020059935769503802
40
0.020059935769503802
40
0.020059935769503802
10
72.206085124185307
20
-37.043750072254454
30
0
10
72.230252166134818
20
-37.026715440486797
30
0
10
72.285150604233323
20
-36.9880191581871
30
0
10
72.327613944597061
20
-36.935851137377057
30
0
10
72.35138434280374
20
-36.906648191549252
30
0
0
LINE
5
301
100
AcDbEntity
8
0
100
AcDbLine
10
72.351384342803755
20
-36.906648191549252
30
0
11
73.171979772014282
21
-36.982398949221206
31
0
0
SPLINE
5
302
100
AcDbEntity
8
0
100
AcDbSpline
70
0
71
3
72
9
73
5
74
0
42
0.000000001
43
0.0000000001
44
0.0000000001
40
0
40
0
40
0
40
0
40
0.034973561769109228
40
0.066060270960276751
40
0.066060270960276751
40
0.066060270960276751
40
0.066060270960276751
10
73.171979772014268
20
-36.982398949221206
30
0
10
73.108892100871415
20
-37.082225988281792
30
0
10
72.989728125595917
20
-37.270785600626724
30
0
10
72.804722922431694
20
-37.394724838244784
30
0
10
72.717662986618251
20
-37.453048290165299
30
0
0
SPLINE
5
303
100
AcDbEntity
8
0
100
AcDbSpline
70
0
71
3
72
9
73
5
74
0
42
0.000000001
43
0.0000000001
44
0.0000000001
40
0
40
0
40
0
40
0
40
0.034071606537567509
40
0.078159183420549616
40
0.078159183420549616
40
0.078159183420549616
40
0.078159183420549616
10
72.717662986618251
20
-37.453048290165299
30
0
10
72.610861088715467
20
-37.494055920207856
30
0
10
72.365860926523411
20
-37.588126121288752
30
0
10
72.102763102149879
20
-37.592020189311143
30
0
10
71.954356414001666
20
-37.59421673251709
30
0
0
SPLINE
5
304
100
AcDbEntity
8
0
100
AcDbSpline
70
0
71
3
72
9
73
5
74
0
42
0.000000001
43
0.0000000001
44
0.0000000001
40
0
40
0
40
0
40
0
40
0.038692249379707222
40
0.069422358245701948
40
0.069422358245701948
40
0.069422358245701948
40
0.069422358245701948
10
71.954356414001666
20
-37.59421673251709
30
0
10
71.824289066171403
20
-37.591937146103895
30
0
10
71.590919795531974
20
-37.587847069482194
30
0
10
71.371908020804042
20
-37.508552148351512
30
0
10
71.274961506015472
20
-37.473451906578653
30
0
0
SPLINE
5
305
100
AcDbEntity
8
0
100
AcDbSpline
70
0
71
3
72
9
73
5
74
0
42
0.000000001
43
0.0000000001
44
0.0000000001
40
0
40
0
40
0
40
0
40
0.027632365096239515
40
0.057027103100093277
40
0.057027103100093277
40
0.057027103100093277
40
0.057027103100093277
10
71.274961506015472
20
-37.473451906578653
30
0
10
71.195135711696409
20
-37.425348332879089
30
0
10
71.030392889761885
20
-37.326073173214198
30
0
10
70.920367312889084
20
-37.168097017499107
30
0
10
70.863654402183769
20
-37.086667881953673
30
0
0
SPLINE
5
306
100
AcDbEntity
8
0
100
AcDbSpline
70
0
71
3
72
9
73
5
74
0
42
0.000000001
43
0.0000000001
44
0.0000000001
40
0
40
0
40
0
40
0
40
0.031345172230051635
40
0.065097582779332849
40
0.065097582779332849
40
0.065097582779332849
40
0.065097582779332849
10
70.863654402183769
20
-37.086667881953673
30
0
10
70.816524279145654
20
-36.992092433457323
30
0
10
70.718644546236376
20
-36.795678355965634
30
0
10
70.70769387469204
20
-36.576273077765457
30
0
10
70.702016066915263
20
-36.462513753527652
30
0
0
SPLINE
5
307
100
AcDbEntity
8
0
100
AcDbSpline
70
0
71
3
72
9
73
5
74
0
42
0.000000001
43
0.0000000001
44
0.0000000001
40
0
40
0
40
0
40
0
40
0.046807060181918811
40
0.090609069118547228
40
0.090609069118547228
40
0.090609069118547228
40
0.090609069118547228
10
70.702016066915263
20
-36.462513753527652
30
0
10
70.71368949078618
20
-36.302644541277409
30
0
10
70.736286895243111
20
-35.99316984992933
30
0
10
70.932549593591744
20
-35.753631346174672
30
0
10
71.02742641498088
20
-35.637834243476256
30
0
0
SPLINE
5
308
100
AcDbEntity
8
0
100
AcDbSpline
70
0
71
3
72
9
73
5
74
0
42
0.000000001
43
0.0000000001
44
0.0000000001
40
0
40
0
40
0
40
0
40
0.045545400820171555
40
0.097459755654309727
40
0.097459755654309727
40
0.097459755654309727
40
0.097459755654309727
10
71.02742641498088
20
-35.637834243476256
30
0
10
71.15246528986539
20
-35.546027962970648
30
0
10
71.420028160629201
20
-35.349577443170972
30
0
10
71.752692541850209
20
-35.33205999163647
30
0
10
71.929894471112604
20
-35.322728886826631
30
0
0
SPLINE
5
309
100
AcDbEntity
8
0
100
AcDbSpline
70
0
71
3
72
9
73
5
74
0
42
0.000000001
43
0.0000000001
44
0.0000000001
40
0
40
0
40
0
40
0
40
0.04189523824880572
40
0.075529575249648956
40
0.075529575249648956
40
0.075529575249648956
40
0.075529575249648956
10
71.929894471112604
20
-35.322728886826631
30
0
10
72.070880738409201
20
-35.325570009842771
30
0
10
72.325053606974976
20
-35.330692043362824
30
0
10
72.561358090140487
20
-35.422899122210758
30
0
10
72.666587658760847
20
-35.46396017615664
30
0
0
SPLINE
5
310
100
AcDbEntity
8
0
100
AcDbSpline
70
0
71
3
72
9
73
5
74
0
42
0.000000001
43
0.0000000001
44
0.0000000001
40
0
40
0
40
0
40
0
40
0.029409898766304909
40
0.058725929004584225
40
0.058725929004584225
40
0.058725929004584225
40
0.058725929004584225
10
72.666587658760847
20
-35.46396017615664
30
0
10
72.751217195025561
20
-35.51624549613426
30
0
10
72.920206152718478
20
-35.620649255337469
30
0
10
73.025387304994027
20
-35.789142519888351
30
0
10
73.077893819456591
20
-35.873254490907726
30
0
0
LINE
5
311
100
AcDbEntity
8
0
100
AcDbLine
10
65.583963055348846
20
-37.544836790580888
30
0
11
64.751084704868333
21
-37.544801894650277
31
0
0
LINE
5
312
100
AcDbEntity
8
0
100
AcDbLine
10
64.751084704868333
20
-37.544801894650277
30
0
11
64.751210398849707
21
-34.544801778074152
31
0
0
LINE
5
313
100
AcDbEntity
8
0
100
AcDbLine
10
64.751210398849707
20
-34.544801778074152
30
0
11
65.58408874933022
21
-34.544836674004756
31
0
0
LINE
5
314
100
AcDbEntity
8
0
100
AcDbLine
10
65.58408874933022
20
-34.544836674004756
30
0
11
65.584042450047775
21
-35.649884435428788
31
0
0
SPLINE
5
315
100
AcDbEntity
8
0
100
AcDbSpline
70
0
71
3
72
9
73
5
74
0
42
0.000000001
43
0.0000000001
44
0.0000000001
40
0
40
0
40
0
40
0
40
0.022683127327889328
40
0.042301366990051291
40
0.042301366990051291
40
0.042301366990051291
40
0.042301366990051291
10
65.584042450047775
20
-35.649884435428788
30
0
10
65.638232053703035
20
-35.596506233091333
30
0
10
65.739289296742399
20
-35.496962158162574
30
0
10
65.86391028381216
20
-35.429486592217174
30
0
10
65.92170615579532
20
-35.398193234147485
30
0
0
SPLINE
5
316
100
AcDbEntity
8
0
100
AcDbSpline
70
0
71
3
72
9
73
5
74
0
42
0.000000001
43
0.0000000001
44
0.0000000001
40
0
40
0
40
0
40
0
40
0.019175239873481152
40
0.040643687139001961
40
0.040643687139001961
40
0.040643687139001961
40
0.040643687139001961
10
65.92170615579532
20
-35.398193234147485
30
0
10
65.982139699978745
20
-35.376130887918933
30
0
10
66.110234163396044
20
-35.329367712929603
30
0
10
66.246651365959849
20
-35.32486969333825
30
0
10
66.318708448510804
20
-35.322493789398585
30
0
0
SPLINE
5
317
100
AcDbEntity
8
0
100
AcDbSpline
70
0
71
3
72
9
73
5
74
0
42
0.000000001
43
0.0000000001
44
0.0000000001
40
0
40
0
40
0
40
0
40
0.030774573981354671
40
0.058571231539400519
40
0.058571231539400519
40
0.058571231539400519
40
0.058571231539400519
10
66.318708448510804
20
-35.322493789398585
30
0
10
66.424030937622618
20
-35.329217828215683
30
0
10
66.624484334631845
20
-35.342015251006153
30
0
10
66.77932310338231
20
-35.468957059778596
30
0
10
66.852806281361438
20
-35.529200935406735
30
0
0
SPLINE
5
318
100
AcDbEntity
8
0
100
AcDbSpline
70
0
71
3
72
9
73
5
74
0
42
0.000000001
43
0.0000000001
44
0.0000000001
40
0
40
0
40
0
40
0
40
0.030053344952253518
40
0.067619955360972428
40
0.067619955360972428
40
0.067619955360972428
40
0.067619955360972428
10
66.852806281361438
20
-35.529200935406735
30
0
10
66.909919935017854
20
-35.613847875417925
30
0
10
67.038425521230792
20
-35.804303291082753
30
0
10
67.045372444300853
20
-36.035272456914683
30
0
10
67.049231842774546
20
-36.163588552702031
30
0
0
LINE
5
319
100
AcDbEntity
8
0
100
AcDbLine
10
67.049231842774532
20
-36.163588552702031
30
0
11
67.049173968674609
21
-37.544898179976258
31
0
0
LINE
5
320
100
AcDbEntity
8
0
100
AcDbLine
10
67.049173968674609
20
-37.544898179976258
30
0
11
66.212203163287427
21
-37.544863112580003
31
0
0
LINE
5
321
100
AcDbEntity
8
0
100
AcDbLine
10
66.212203163287427
20
-37.544863112580003
30
0
11
66.212253235101215
21
-36.34977448867474
31
0
0
SPLINE
5
322
100
AcDbEntity
8
0
100
AcDbSpline
70
0
71
3
72
9
73
5
74
0
42
0.000000001
43
0.0000000001
44
0.0000000001
40
0
40
0
40
0
40
0
40
0.017547811144898923
40
0.030291615628881757
40
0.030291615628881757
40
0.030291615628881757
40
0.030291615628881757
10
66.212253235101201
20
-36.34977448867474
30
0
10
66.211668052245585
20
-36.289946846642721
30
0
10
66.210657890123983
20
-36.186670379768799
30
0
10
66.158493936912336
20
-36.09837669839056
30
0
10
66.136548352068473
20
-36.061231191645696
30
0
0
SPLINE
5
323
100
AcDbEntity
8
0
100
AcDbSpline
70
0
71
3
72
9
73
5
74
0
42
0.000000001
43
0.0000000001
44
0.0000000001
40
0
40
0
40
0
40
0
40
0.01115691758383143
40
0.023521094083084976
40
0.023521094083084976
40
0.023521094083084976
40
0.023521094083084976
10
66.136548352068473
20
-36.061231191645696
30
0
10
66.107682082778965
20
-36.036179680192184
30
0
10
66.046826005759087
20
-35.983365903143635
30
0
10
65.966141622090831
20
-35.978061957110391
30
0
10
65.923728800778875
20
-35.975273867208372
30
0
0
SPLINE
5
324
100
AcDbEntity
8
0
100
AcDbSpline
70
0
71
3
72
9
73
5
74
0
42
0.000000001
43
0.0000000001
44
0.0000000001
40
0
40
0
40
0
40
0
40
0.014006859832512621
40
0.027845368177887513
40
0.027845368177887513
40
0.027845368177887513
40
0.027845368177887513
10
65.923728800778875
20
-35.975273867208372
30
0
10
65.875734968668496
20
-35.979930181345331
30
0
10
65.780324152728184
20
-35.989186844369449
30
0
10
65.712075596293928
20
-36.056438453591909
30
0
10
65.678157631491246
20
-36.089860958531318
30
0
0
SPLINE
5
325
100
AcDbEntity
8
0
100
AcDbSpline
70
0
71
3
72
9
73
5
74
0
42
0.000000001
43
0.0000000001
44
0.0000000001
40
0
40
0
40
0
40
0
40
0.017500248318775596
40
0.042729617964192161
40
0.042729617964192161
40
0.042729617964192161
40
0.042729617964192161
10
65.678157631491246
20
-36.089860958531318
30
0
10
65.650917548370671
20
-36.142273364738358
30
0
10
65.584406586705811
20
-36.270246525633929
30
0
10
65.584155207398283
20
-36.415447712739365
30
0
10
65.584006782446849
20
-36.501180621128732
30
0
0
LINE
5
326
100
AcDbEntity
8
0
100
AcDbLine
10
65.584006782446849
20
-36.501180621128732
30
0
11
65.583963055348846
21
-37.544836790580888
31
0
0
LINE
5
327
100
AcDbEntity
8
0
100
AcDbLine
10
61.875914595735743
20
-37.544681430795556
30
0
11
61.038943194302099
21
-37.544646363374326
31
0
0
LINE
5
328
100
AcDbEntity
8
0
100
AcDbLine
10
61.038943194302099
20
-37.544646363374326
30
0
11
61.039034249551335
21
-35.371385914918683
31
0
0
LINE
5
329
100
AcDbEntity
8
0
100
AcDbLine
10
61.039034249551335
20
-35.371385914918683
30
0
11
61.818706513919793
21
-35.371418581621114
31
0
0
LINE
5
330
100
AcDbEntity
8
0
100
AcDbLine
10
61.818706513919793
20
-35.371418581621114
30
0
11
61.818691595260027
21
-35.727489576639393
31
0
0
SPLINE
5
331
100
AcDbEntity
8
0
100
AcDbSpline
70
0
71
3
72
9
73
5
74
0
42
0.000000001
43
0.0000000001
44
0.0000000001
40
0
40
0
40
0
40
0
40
0.022585125132321148
40
0.039519020683770487
40
0.039519020683770487
40
0.039519020683770487
40
0.039519020683770487
10
61.818691595260027
20
-35.727489576639393
30
0
10
61.852706845138279
20
-35.659485318019726
30
0
10
61.912226079839286
20
-35.540492764857852
30
0
10
62.00863518056822
20
-35.449359965467877
30
0
10
62.0499464684925
20
-35.410309572024929
30
0
0
SPLINE
5
332
100
AcDbEntity
8
0
100
AcDbSpline
70
0
71
3
72
9
73
5
74
0
42
0.000000001
43
0.0000000001
44
0.0000000001
40
0
40
0
40
0
40
0
40
0.014986363950688319
40
0.03135247473926752
40
0.03135247473926752
40
0.03135247473926752
40
0.03135247473926752
10
62.0499464684925
20
-35.410309572024929
30
0
10
62.093685803686796
20
-35.384659869222837
30
0
10
62.185191415475188
20
-35.330998977106617
30
0
10
62.291291262842876
20
-35.325301482835329
30
0
10
62.346675785790779
20
-35.322327369205176
30
0
0
SPLINE
5
333
100
AcDbEntity
8
0
100
AcDbSpline
70
0
71
3
72
9
73
5
74
0
42
0.000000001
43
0.0000000001
44
0.0000000001
40
0
40
0
40
0
40
0
40
0.019498845952625875
40
0.042214295893120958
40
0.042214295893120958
40
0.042214295893120958
40
0.042214295893120958
10
62.346675785790779
20
-35.322327369205176
30
0
10
62.411919367849293
20
-35.328405727468059
30
0
10
62.553169362071344
20
-35.341565153152899
30
0
10
62.681015930540269
20
-35.403574501633898
30
0
10
62.749809979207399
20
-35.436941639980326
30
0
0
LINE
5
334
100
AcDbEntity
8
0
100
AcDbLine
10
62.749809979207392
20
-35.436941639980326
30
0
11
62.491939594019257
21
-36.030382693816662
31
0
0
SPLINE
5
335
100
AcDbEntity
8
0
100
AcDbSpline
70
0
71
3
72
9
73
5
74
0
42
0.000000001
43
0.0000000001
44
0.0000000001
40
0
40
0
40
0
40
0
40
0.013979201250359086
40
0.024224439346609613
40
0.024224439346609613
40
0.024224439346609613
40
0.024224439346609613
10
62.491939594019257
20
-36.030382693816662
30
0
10
62.448541696340492
20
-36.012618529099029
30
0
10
62.373337847332131
20
-35.981835158644692
30
0
10
62.292741116900473
20
-35.972801803106435
30
0
10
62.25865435512916
20
-35.968981327553912
30
0
0
SPLINE
5
336
100
AcDbEntity
8
0
100
AcDbSpline
70
0
71
3
72
9
73
5
74
0
42
0.000000001
43
0.0000000001
44
0.0000000001
40
0
40
0
40
0
40
0
40
0.014916475809285384
40
0.029757019788357125
40
0.029757019788357125
40
0.029757019788357125
40
0.029757019788357125
10
62.25865435512916
20
-35.968981327553912
30
0
10
62.207192202042201
20
-35.974549133421604
30
0
10
62.104529862268436
20
-35.98565640242407
30
0
10
62.038051290732227
20
-36.064640543211162
30
0
10
62.004896822591071
20
-36.104031840570137
30
0
0
SPLINE
5
337
100
AcDbEntity
8
0
100
AcDbSpline
70
0
71
3
72
9
73
5
74
0
42
0.000000001
43
0.0000000001
44
0.0000000001
40
0
40
0
40
0
40
0
40
0.028979881581567047
40
0.072992998497622141
40
0.072992998497622141
40
0.072992998497622141
40
0.072992998497622141
10
62.004896822591071
20
-36.104031840570137
30
0
10
61.967668788710661
20
-36.194047095695737
30
0
10
61.873900778877562
20
-36.420772776532367
30
0
10
61.875176118312652
20
-36.667436074150359
30
0
10
61.875945118967778
20
-36.816168429039358
30
0
0
LINE
5
338
100
AcDbEntity
8
0
100
AcDbLine
10
61.875945118967778
20
-36.816168429039358
30
0
11
61.875914595735743
21
-37.544681430795556
31
0
0
LWPOLYLINE
5
339
100
AcDbEntity
8
0
100
AcDbPolyline
90
10
70
1
43
0.0
10
55.677414802401579
20
-37.544421726099735
10
54.805654852052079
20
-37.544385201108163
10
54.805780546033454
20
-34.544385084532038
10
55.671401217976467
20
-34.544421352300169
10
56.800936260340443
20
-36.204086699064895
10
56.801005795003185
20
-34.544468680463893
10
57.674811972806012
20
-34.544505291188294
10
57.674686278824645
20
-37.544505407764419
10
56.800880101021811
20
-37.544468797040025
10
55.677483822629917
20
-35.897081966288468
0
LWPOLYLINE
5
340
100
AcDbEntity
8
0
100
AcDbPolyline
90
8
70
1
43
0.0
10
82.250000000000014
20
-19
10
73.750000000000014
20
-18.999999999999996
42
-0.4142135623730942
10
73
20
-18.249999999999996
10
73
20
-13.749999999999998
42
-0.41421356237309853
10
73.750000000000014
20
-12.999999999999998
10
82.250000000000014
20
-12.999999999999998
42
-0.41421356237308465
10
83
20
-13.75
10
83
20
-18.25
42
-0.41421356237309936
0
LWPOLYLINE
5
341
100
AcDbEntity
8
0
100
AcDbPolyline
90
6
70
1
43
0.0
10
73.876290104376906
20
16.423336271574385
42
0.53843659042779002
10
72.506945706010882
20
18.500000476837165
10
67.493054293989104
20
18.500000476837165
42
0.53843659042780256
10
66.123709895623108
20
16.423336271574406
10
68.870529199803698
20
10.01409122848629
42
0.65939615798056117
10
71.129470800196287
20
10.014091228486297
0
LWPOLYLINE
5
342
100
AcDbEntity
8
0
100
AcDbPolyline
90
6
70
1
43
0.0
10
66.123709895623108
20
35.576664682099938
42
0.53843659042778846
10
67.493054293989118
20
33.500000476837158
10
72.506945706010896
20
33.500000476837158
42
0.53843659042780101
10
73.876290104376906
20
35.576664682099917
10
71.129470800196316
20
41.985909725188037
42
0.65939615798055806
10
68.870529199803727
20
41.985909725188023
0
LWPOLYLINE
5
343
100
AcDbEntity
8
0
100
AcDbPolyline
90
6
70
1
43
0.0
10
77.500000000000014
20
23.493054770826269
42
0.53843659042780156
10
79.576664205262773
20
22.123710372460277
10
85.985909248350865
20
24.870529676640857
42
0.65939615798055606
10
85.985909248350879
20
27.129471277033446
10
79.576664205262787
20
29.87629058121405
42
0.53843659042779868
10
77.500000000000014
20
28.506946182848047
0
LWPOLYLINE
5
344
100
AcDbEntity
8
0
100
AcDbPolyline
90
8
70
1
43
0.0
10
66.250000000000014
20
-18.999999999999996
10
57.75
20
-19.000000000000007
42
-0.41421356237308982
10
57.000000000000014
20
-18.249999999999993
10
57.000000000000028
20
-13.749999999999996
42
-0.41421356237308898
10
57.750000000000021
20
-12.999999999999996
10
66.250000000000014
20
-12.999999999999996
42
-0.41421356237309509
10
67.000000000000014
20
-13.749999999999998
10
67.000000000000014
20
-18.249999999999996
42
-0.41421356237309509
0
LWPOLYLINE
5
345
100
AcDbEntity
8
0
100
AcDbPolyline
90
8
70
1
43
0.0
10
82.250000000000014
20
-30.999999999999996
10
73.750000000000014
20
-30.999999999999993
42
-0.4142135623731002
10
73
20
-30.249999999999993
10
73
20
-25.75
42
-0.4142135623731002
10
73.750000000000014
20
-25
10
82.250000000000014
20
-25.000000000000004
42
-0.41421356237308288
10
83
20
-25.75
10
83
20
-30.249999999999993
42
-0.4142135623731002
0
LWPOLYLINE
5
346
100
AcDbEntity
8
0
100
AcDbPolyline
90
6
70
1
43
0.0
10
63.129470800196273
20
3.4475423861452468
42
0.65939615798055773
10
60.870529199803713
20
3.4475423861452539
10
58.12370989562308
20
-2.961702656942836
42
0.53843659042779513
10
59.493054293989118
20
-5.0383668622056188
10
64.506945706010882
20
-5.0383668622056152
42
0.53843659042780234
10
65.876290104376892
20
-2.9617026569428528
0
LWPOLYLINE
5
347
100
AcDbEntity
8
0
100
AcDbPolyline
90
6
70
1
43
0.0
10
54.014090751649128
20
27.129471277033478
42
0.6593961579805544
10
54.014090751649135
20
24.870529676640881
10
60.423335794737234
20
22.123710372460295
42
0.53843659042779846
10
62.5
20
23.493054770826287
10
62.499999999999993
20
28.506946182848051
42
0.53843659042780334
10
60.423335794737234
20
29.876290581214064
0
LWPOLYLINE
5
348
100
AcDbEntity
8
0
100
AcDbPolyline
90
8
70
1
43
0.0
10
72.500000000000014
20
27.750000476837158
10
72.500000000000014
20
24.250000476837165
42
-0.4142135623730881
10
71.75
20
23.500000476837162
10
68.250000000000014
20
23.500000476837176
42
-0.4142135623731002
10
67.500000000000014
20
24.250000476837165
10
67.499999999999986
20
27.750000476837169
42
-0.41421356237309509
10
68.25
20
28.500000476837162
10
71.75
20
28.500000476837162
42
-0.41421356237309509
0
LWPOLYLINE
5
349
100
AcDbEntity
8
0
100
AcDbPolyline
90
6
70
1
43
0.0
10
75.493054293989118
20
4.1923110923458982
42
0.53843659042780267
10
74.123709895623108
20
2.1156468870831349
10
76.870529199803713
20
-4.293598156004971
42
0.65939615798055973
10
79.129470800196287
20
-4.2935981560049719
10
81.876290104376906
20
2.1156468870831096
42
0.53843659042780234
10
80.506945706010882
20
4.1923110923459017
0
LWPOLYLINE
5
350
100
AcDbEntity
8
0
100
AcDbPolyline
90
8
70
1
43
0.0
10
57.000000000000014
20
-30.249999999999993
10
57.000000000000021
20
-25.75
42
-0.41421356237309509
10
57.750000000000021
20
-25
10
66.25
20
-24.999999999999996
42
-0.4142135623731002
10
67.000000000000014
20
-25.749999999999993
10
67.000000000000014
20
-30.249999999999993
42
-0.4142135623731002
10
66.250000000000014
20
-30.999999999999996
10
57.75
20
-31.000000000000014
42
-0.41421356237309165
0
LWPOLYLINE
5
351
100
AcDbEntity
8
0
100
AcDbPolyline
90
4
70
1
43
0.0
10
51.500001043081284
20
-46.000000000000007
10
88.500001043081284
20
-46
10
88.500001043081284
20
46
10
51.500001043081284
20
46
0
LINE
5
352
100
AcDbEntity
8
0
100
AcDbLine
10
70.000001043081284
20
46
30
0
11
70.000001043081284
21
-46
31
0
0
LINE
5
353
100
AcDbEntity
8
0
100
AcDbLine
10
51.500001043081284
20
0
30
0
11
88.500001043081284
21
0
31
0
0
LWPOLYLINE
5
354
100
AcDbEntity
8
0
100
AcDbPolyline
90
8
70
1
43
0.0
10
50.500001043081269
20
47.999999999999986
10
89.500001043081298
20
47.999999999999972
42
-0.41421356237309509
10
90.500001043081269
20
46.999999999999993
10
90.500001043081284
20
-47
42
-0.41421356237309509
10
89.500001043081298
20
-48
10
50.500001043081269
20
-48
42
-0.41421356237309509
10
49.500001043081276
20
-47
10
49.500001043081276
20
46.999999999999993
42
-0.41421356237309509
0
LINE
5
355
100
AcDbEntity
8
0
100
AcDbLine
10
49.500001043081276
20
48
30
0
11
90.500001043081284
21
-48
31
0
6
DASHED
0
LINE
5
356
100
AcDbEntity
8
0
100
AcDbLine
10
90.500001043081284
20
48
30
0
11
49.500001043081276
21
-48
31
0
6
DASHED
0
LWPOLYLINE
5
357
100
AcDbEntity
8
0
100
AcDbPolyline
90
8
70
1
43
0.0
10
68.25
20
28.500000476837162
42
0.41421356237309165
10
67.500000000000014
20
27.750000476837169
10
67.500000000000014
20
24.250000476837165
42
0.41421356237309509
10
68.25
20
23.500000476837162
10
71.75
20
23.500000476837162
42
0.4142135623730881
10
72.500000000000014
20
24.250000476837165
10
72.500000000000014
20
27.750000476837158
42
0.41421356237309509
10
71.75
20
28.500000476837162
0
LINE
5
358
100
AcDbEntity
8
0
100
AcDbLine
10
67.500000000000014
20
23.500000476837162
30
0
11
72.500000000000014
21
28.500000476837162
31
0
6
DASHED
0
LWPOLYLINE
5
359
100
AcDbEntity
8
0
100
AcDbPolyline
90
8
70
1
43
0.0
10
73
20
-18.249999999999996
42
0.41421356237309509
10
73.750000000000014
20
-18.999999999999996
10
82.250000000000014
20
-19
42
0.41421356237309509
10
83
20
-18.25
10
83
20
-13.75
42
0.41421356237309509
10
82.250000000000014
20
-12.999999999999998
10
73.750000000000014
20
-12.999999999999998
42
0.41421356237309509
10
73
20
-13.749999999999998
0
LWPOLYLINE
5
360
100
AcDbEntity
8
0
100
AcDbPolyline
90
8
70
1
43
0.0
10
57.750000000000021
20
-12.999999999999996
10
66.250000000000014
20
-12.999999999999996
42
-0.41421356237309509
10
67.000000000000014
20
-13.749999999999998
10
67.000000000000014
20
-18.249999999999996
42
-0.41421356237309509
10
66.250000000000014
20
-18.999999999999996
10
57.75
20
-19.000000000000004
42
-0.4142135623730881
10
57.000000000000014
20
-18.249999999999993
10
57.000000000000021
20
-13.749999999999996
42
-0.41421356237309509
0
LINE
5
361
100
AcDbEntity
8
0
100
AcDbLine
10
64.000000029802322
20
-28
30
0
11
59.999999970197692
21
-28
31
0
0
LWPOLYLINE
5
362
100
AcDbEntity
8
0
100
AcDbPolyline
90
6
70
1
43
0.0
10
62.5
20
23.493054770826287
10
62.5
20
28.506946182848054
42
0.53843659042780101
10
60.423335794737234
20
29.876290581214064
10
54.014090751649128
20
27.129471277033478
42
0.65939615798054874
10
54.014090751649135
20
24.870529676640878
10
60.423335794737234
20
22.123710372460291
42
0.53843659042779568
0
LINE
5
363
100
AcDbEntity
8
0
100
AcDbLine
10
78
20
-13.999999970197678
30
0
11
78
21
-18.000000029802315
31
0
0
LWPOLYLINE
5
364
100
AcDbEntity
8
0
100
AcDbPolyline
90
6
70
1
43
0.0
10
67.493054293989118
20
33.500000476837158
42
-0.53843659042779191
10
66.123709895623108
20
35.576664682099938
10
68.870529199803727
20
41.985909725188023
42
-0.65939615798055828
10
71.129470800196287
20
41.985909725188023
10
73.876290104376906
20
35.576664682099917
42
-0.53843659042780101
10
72.506945706010896
20
33.500000476837158
0
LINE
5
365
100
AcDbEntity
8
0
100
AcDbLine
10
57.000000000000014
20
-25
30
0
11
67.000000000000014
21
-30.999999999999996
31
0
6
DASHED
0
LINE
5
366
100
AcDbEntity
8
0
100
AcDbLine
10
67.000000000000014
20
-27.999999999999989
30
0
11
73
21
-28
31
0
0
LWPOLYLINE
5
367
100
AcDbEntity
8
0
100
AcDbPolyline
90
8
70
1
43
0.0
10
67.000000000000014
20
-25.749999999999993
10
67.000000000000014
20
-30.249999999999993
42
-0.41421356237309509
10
66.250000000000014
20
-30.999999999999996
10
57.75
20
-31.000000000000007
42
-0.4142135623730881
10
57.000000000000014
20
-30.249999999999993
10
57.000000000000021
20
-25.75
42
-0.41421356237309509
10
57.750000000000021
20
-25
10
66.250000000000014
20
-24.999999999999993
42
-0.41421356237309509
0
LINE
5
368
100
AcDbEntity
8
0
100
AcDbLine
10
67.000000000000014
20
-15.999999999999995
30
0
11
73
21
-15.999999999999998
31
0
0
LINE
5
369
100
AcDbEntity
8
0
100
AcDbLine
10
62.000000000000014
20
-13.999999970197678
30
0
11
62.000000000000014
21
-18.000000029802315
31
0
0
LINE
5
370
100
AcDbEntity
8
0
100
AcDbLine
10
67.000000000000014
20
-12.999999999999993
30
0
11
57.000000000000014
21
-18.999999999999993
31
0
6
DASHED
0
LINE
5
371
100
AcDbEntity
8
0
100
AcDbLine
10
73
20
-25
30
0
11
83
21
-30.999999999999996
31
0
6
DASHED
0
LWPOLYLINE
5
372
100
AcDbEntity
8
0
100
AcDbPolyline
90
8
70
1
43
0.0
10
73
20
-30.249999999999993
10
73
20
-25.75
42
-0.41421356237309509
10
73.750000000000014
20
-25
10
82.250000000000014
20
-25.000000000000007
42
-0.41421356237309509
10
83
20
-25.75
10
83
20
-30.249999999999993
42
-0.41421356237309509
10
82.250000000000014
20
-30.999999999999996
10
73.750000000000014
20
-30.999999999999996
42
-0.41421356237309509
0
LINE
5
373
100
AcDbEntity
8
0
100
AcDbLine
10
64.000000029802322
20
-15.999999999999998
30
0
11
59.999999970197692
21
-15.999999999999996
31
0
0
LINE
5
374
100
AcDbEntity
8
0
100
AcDbLine
10
83
20
-25
30
0
11
73
21
-30.999999999999996
31
0
6
DASHED
0
LINE
5
375
100
AcDbEntity
8
0
100
AcDbLine
10
57.000000000000014
20
-12.999999999999998
30
0
11
67.000000000000014
21
-18.999999999999993
31
0
6
DASHED
0
LINE
5
376
100
AcDbEntity
8
0
100
AcDbLine
10
53.269322045448497
20
26.00000047683718
30
0
11
62.5
21
26.00000047683718
31
0
0
LINE
5
377
100
AcDbEntity
8
0
100
AcDbLine
10
73
20
-13
30
0
11
83
21
-19
31
0
6
DASHED
0
LINE
5
378
100
AcDbEntity
8
0
100
AcDbLine
10
78
20
-25.999999970197678
30
0
11
78
21
-30.000000029802322
31
0
0
LINE
5
379
100
AcDbEntity
8
0
100
AcDbLine
10
80.000000029802322
20
-16
30
0
11
75.999999970197692
21
-15.999999999999998
31
0
0
LWPOLYLINE
5
380
100
AcDbEntity
8
0
100
AcDbPolyline
90
6
70
1
43
0.0
10
60.870529199803713
20
3.4475423861452548
42
-0.65939615798055595
10
63.129470800196273
20
3.4475423861452459
10
65.876290104376892
20
-2.9617026569428528
42
-0.53843659042779912
10
64.506945706010882
20
-5.0383668622056188
10
59.493054293989118
20
-5.0383668622056188
42
-0.53843659042779923
10
58.123709895623108
20
-2.961702656942844
0
LINE
5
381
100
AcDbEntity
8
0
100
AcDbLine
10
78
20
-5.0383668622056188
30
0
11
78
21
4.1923110923459017
31
0
0
LWPOLYLINE
5
382
100
AcDbEntity
8
0
100
AcDbPolyline
90
6
70
1
43
0.0
10
60.870529199803713
20
3.4475423861452548
10
58.12370989562308
20
-2.9617026569428342
42
0.53843659042779923
10
59.493054293989118
20
-5.0383668622056188
10
64.506945706010882
20
-5.0383668622056152
42
0.53843659042779912
10
65.876290104376892
20
-2.9617026569428528
10
63.129470800196273
20
3.4475423861452468
42
0.65939615798055595
0
LWPOLYLINE
5
383
100
AcDbEntity
8
0
100
AcDbPolyline
90
6
70
1
43
0.0
10
79.129470800196287
20
-4.2935981560049719
42
-0.65939615798055595
10
76.870529199803727
20
-4.293598156004963
10
74.123709895623108
20
2.1156468870831358
42
-0.53843659042779912
10
75.493054293989118
20
4.1923110923459017
10
80.506945706010882
20
4.1923110923459017
42
-0.53843659042780101
10
81.876290104376892
20
2.115646887083118
0
LINE
5
384
100
AcDbEntity
8
0
100
AcDbLine
10
61.999999999999993
20
4.1923110923459017
30
0
11
61.999999999999993
21
-5.0383668622056188
31
0
0
LWPOLYLINE
5
385
100
AcDbEntity
8
0
100
AcDbPolyline
90
6
70
1
43
0.0
10
79.576664205262773
20
22.123710372460266
42
-0.53843659042779912
10
77.500000000000014
20
23.493054770826269
10
77.500000000000014
20
28.506946182848047
42
-0.53843659042779568
10
79.576664205262787
20
29.876290581214057
10
85.985909248350879
20
27.129471277033446
42
-0.65939615798056306
10
85.985909248350865
20
24.870529676640878
0
LINE
5
386
100
AcDbEntity
8
0
100
AcDbLine
10
61.999999999999993
20
4.1923110923459017
30
0
11
61.999999999999993
21
-5.0383668622056188
31
0
0
LINE
5
387
100
AcDbEntity
8
0
100
AcDbLine
10
86.730677954551538
20
26.000000476837151
30
0
11
77.500000000000014
21
26.000000476837151
31
0
0
LWPOLYLINE
5
388
100
AcDbEntity
8
0
100
AcDbPolyline
90
6
70
1
43
0.0
10
71.129470800196287
20
10.014091228486297
42
-0.65939615798055828
10
68.870529199803713
20
10.014091228486297
10
66.123709895623108
20
16.423336271574406
42
-0.53843659042779912
10
67.493054293989104
20
18.500000476837162
10
72.506945706010882
20
18.500000476837162
42
-0.53843659042779379
10
73.876290104376892
20
16.423336271574385
0
LINE
5
389
100
AcDbEntity
8
0
100
AcDbLine
10
80.000000029802322
20
-28
30
0
11
75.999999970197692
21
-28
31
0
0
LINE
5
390
100
AcDbEntity
8
0
100
AcDbLine
10
69.999999999999986
20
9.2693225222856412
30
0
11
69.999999999999986
21
18.500000476837162
31
0
0
LINE
5
391
100
AcDbEntity
8
0
100
AcDbLine
10
70.000000000000014
20
42.730678431388682
30
0
11
70.000000000000014
21
33.500000476837158
31
0
0
LINE
5
392
100
AcDbEntity
8
0
100
AcDbLine
10
67.000000000000014
20
-24.999999999999993
30
0
11
57.000000000000014
21
-30.999999999999996
31
0
6
DASHED
0
LINE
5
393
100
AcDbEntity
8
0
100
AcDbLine
10
83
20
-12.999999999999998
30
0
11
73
21
-18.999999999999996
31
0
6
DASHED
0
LINE
5
394
100
AcDbEntity
8
0
100
AcDbLine
10
72.500000000000014
20
23.500000476837162
30
0
11
67.500000000000014
21
28.500000476837162
31
0
6
DASHED
0
LINE
5
395
100
AcDbEntity
8
0
100
AcDbLine
10
62.000000000000014
20
-25.999999970197678
30
0
11
62.000000000000014
21
-30.000000029802322
31
0
0
LINE
5
396
100
AcDbEntity
8
0
100
AcDbLine
10
61.999999999999993
20
-0.42302788492985854
30
0
11
78
21
-0.42302788492985854
31
0
0
CIRCLE
5
397
100
AcDbEntity
8
0
100
AcDbCircle
10
57.500000856816769
20
40.000000596046448
30
0
40
1.0500000000000009
210
0
220
0
230
1
0
CIRCLE
5
398
100
AcDbEntity
8
0
100
AcDbCircle
10
82.500001229345798
20
40.000000596046448
30
0
40
1.0499999999999985
210
0
220
0
230
1
0
CIRCLE
5
399
100
AcDbEntity
8
0
100
AcDbCircle
10
57.500000856816769
20
-40.000000596046448
30
0
40
1.0500000000000009
210
0
220
0
230
1
0
CIRCLE
5
400
100
AcDbEntity
8
0
100
AcDbCircle
10
82.500001229345798
20
-40.000000596046448
30
0
40
1.0499999999999963
210
0
220
0
230
1
0
ENDSEC
0
SECTION
2
OBJECTS
0
DICTIONARY
5
C
100
AcDbDictionary
3
ACAD_GROUP
350
D
3
ACAD_MLINESTYLE
350
17
0
DICTIONARY
5
D
100
AcDbDictionary
0
DICTIONARY
5
1A
330
C
100
AcDbDictionary
0
DICTIONARY
5
17
100
AcDbDictionary
0
ENDSEC
0
EOF
